<?xml version="1.0" encoding="utf-8"?>
<!-- Generator: Adobe Illustrator 15.1.0, SVG Export Plug-In . SVG Version: 6.00 Build 0)  -->
<svg version="1.2" baseProfile="tiny" id="Layer_1" xmlns="http://www.w3.org/2000/svg" xmlns:xlink="http://www.w3.org/1999/xlink"
	 x="0px" y="0px" width="32px" height="40px" viewBox="0 0 32 40" xml:space="preserve">
<circle fill="#FFFFFF" cx="16.001" cy="15.559" r="11.647"/>
<g>
	<path d="M15.969,4.448c-1.17,0.209-1.994,0.515-2.403,0.891c-0.212,0.192-0.309,0.363-0.409,0.714
		c-0.125,0.423-0.272,0.485-0.961,0.405c-1.465-0.167-2.644,0.114-2.945,0.711c-0.108,0.208-0.108,0.542,0,0.78
		c0.108,0.239,1.112,1.964,1.472,2.524c0.993,1.563,1.77,2.422,2.489,2.761c0.229,0.109,0.296,0.122,0.567,0.105
		c0.281-0.012,0.334-0.029,0.548-0.18c0.142-0.096,0.417-0.371,0.672-0.672c0.751-0.882,1.036-1.073,1.646-1.094
		c0.279-0.012,0.412,0.004,0.627,0.075c0.479,0.158,1.094,0.546,1.699,1.073c0.166,0.146,0.309,0.264,0.318,0.264
		c0.07,0,0.232-1.708,0.262-2.757c0.072-2.474-0.326-4.145-1.193-5.014C17.742,4.416,17.084,4.253,15.969,4.448z"/>
	<path d="M22.475,8.777c-0.418,0.042-1.02,0.158-1.309,0.25c-0.371,0.126-0.895,0.384-1.094,0.556L19.93,9.699l-0.088,1.417
		c-0.051,0.811-0.074,1.428-0.051,1.44c0.018,0.013,0.172,0.051,0.336,0.079c0.166,0.03,0.57,0.105,0.906,0.168l0.604,0.122
		l0.23-0.151c0.125-0.083,0.389-0.313,0.586-0.511c0.572-0.571,1.031-1.34,1.316-2.188c0.143-0.431,0.324-1.241,0.287-1.278
		C24.033,8.773,22.699,8.755,22.475,8.777z"/>
	<path d="M9.569,11.2c-0.577,0.125-1.341,0.522-1.964,1.019c-0.405,0.326-0.818,0.724-0.818,0.786c0,0.066,0.496,0.43,0.835,0.61
		c1.262,0.668,3.163,0.672,4.913,0.02l0.234-0.087l-1.204-1.207l-1.208-1.208l-0.25,0.004C9.97,11.137,9.728,11.167,9.569,11.2z"/>
	<path d="M16.329,11.947c-0.46,0.23-1.124,0.919-1.884,1.963c-0.498,0.686-0.569,0.89-0.389,1.12c0.259,0.326,1.131,0.23,2.089-0.23
		c0.351-0.166,0.498-0.212,0.719-0.229c0.295-0.025,0.43,0.02,1.035,0.367c0.209,0.117,0.256,0.125,0.51,0.108
		c0.682-0.046,1.328-0.594,1.328-1.12c0-0.188-0.205-0.546-0.455-0.789c-0.488-0.477-1.369-0.974-2.107-1.186
		C16.713,11.818,16.592,11.818,16.329,11.947z"/>
	<path d="M20.506,13.505c0.572,1.137,0.176,2.018-1.207,2.682c-0.465,0.226-0.789,0.342-1.316,0.481
		c-0.195,0.05-0.35,0.108-0.348,0.133c0.031,0.151,0.871,1.521,1.326,2.165c0.35,0.494,1.061,1.229,1.303,1.35
		c0.096,0.049,0.346,0.121,0.555,0.159c0.357,0.066,0.385,0.062,0.49-0.005c0.1-0.067,0.107-0.086,0.086-0.267
		c-0.01-0.104-0.084-0.376-0.152-0.603c-0.143-0.438-0.139-0.547,0-0.828c0.129-0.248,0.447-0.566,1.08-1.068
		c0.334-0.268,0.791-0.631,1.008-0.801c0.824-0.656,1.537-1.43,1.746-1.876c0.115-0.263,0.107-0.468-0.029-0.693
		c-0.35-0.564-1.947-0.995-4.088-1.096l-0.604-0.029L20.506,13.505z"/>
	<path d="M13.253,13.811c-1.838,0.384-3.372,0.965-3.98,1.513c-0.536,0.476-0.519,0.886,0.053,1.441
		c0.526,0.514,1.103,0.902,2.541,1.717c0.931,0.525,1.286,0.789,1.47,1.095c0.134,0.212,0.138,0.243,0.117,0.496
		c-0.071,0.808-0.079,1.045-0.025,1.108c0.079,0.096,0.267,0.074,0.619-0.066c0.547-0.227,0.902-0.664,1.349-1.667
		c0.209-0.469,0.677-1.818,0.727-2.09l0.025-0.147l-0.305-0.094c-0.748-0.234-1.604-0.741-2.026-1.195
		c-0.539-0.585-0.643-1.229-0.305-1.926c0.067-0.139,0.117-0.251,0.113-0.255C13.621,13.736,13.454,13.769,13.253,13.811z"/>
	<path d="M17.127,15.336c-0.051,0.33-0.055,0.334-0.277,0.116l-0.199-0.197l-0.109,0.248l-0.108,0.246l-0.146-0.243
		c-0.083-0.129-0.163-0.237-0.179-0.237c-0.017,0-0.122,0.188-0.234,0.422l-0.209,0.421l0.122,0.097
		c0.262,0.212,0.488,0.292,0.818,0.292c0.26,0,0.355-0.022,0.553-0.118c0.271-0.133,0.73-0.564,0.768-0.722
		c0.037-0.147-0.146-0.326-0.432-0.434C17.182,15.11,17.158,15.114,17.127,15.336z"/>
	<path d="M17.127,17.007c-0.16,0.054-0.301,0.118-0.318,0.134c-0.012,0.017-0.059,0.262-0.096,0.551
		c-0.158,1.154-0.401,2.151-0.627,2.577l-0.138,0.26l0.113-0.059c0.066-0.033,0.264-0.18,0.439-0.32
		c0.54-0.439,0.618-0.49,0.844-0.557c0.309-0.096,0.473-0.05,0.756,0.201c0.314,0.27,0.592,0.404,0.877,0.404
		c0.119,0,0.217-0.008,0.217-0.021s-0.111-0.159-0.254-0.326c-0.389-0.46-0.961-1.22-1.223-1.625
		c-0.453-0.693-0.551-1.052-0.328-1.232C17.537,16.877,17.484,16.877,17.127,17.007z"/>
	<path d="M10.86,28.034c0.077-0.274,2.235-8.1,2.235-8.174c0-0.059-0.075-0.131-0.442-0.426c-0.093-0.072-0.096-0.068-0.222,0.083
		c-0.395,0.479-1.323,3.275-2.615,7.806C10.207,27.515,10.557,27.753,10.86,28.034z"/>
</g>
<g>
	<path fill="#CC2782" d="M16.001,0.265c-8.433,0-15.294,6.163-15.294,13.739c0,11.77,13.637,24.184,15.293,25.646
		c1.652-1.471,15.293-13.98,15.293-25.646C31.293,6.428,24.434,0.265,16.001,0.265z M16.001,27.206
		c-6.433,0-11.647-5.215-11.647-11.647c0-6.433,5.214-11.647,11.647-11.647c6.433,0,11.647,5.214,11.647,11.647
		C27.648,21.991,22.434,27.206,16.001,27.206z"/>
	<path fill="#FFFFFF" d="M16.001,0.516c8.294,0,15.042,6.051,15.042,13.489c0,11.236-12.822,23.306-15.043,25.312
		C13.776,37.324,0.957,25.34,0.957,14.004C0.957,6.567,7.706,0.516,16.001,0.516 M16.001,0.016c-8.585,0-15.544,6.263-15.544,13.989
		c0,12.729,15.544,25.979,15.544,25.979s15.542-13.363,15.542-25.979C31.543,6.278,24.585,0.016,16.001,0.016L16.001,0.016z"/>
</g>
</svg>
