<?xml version="1.0" encoding="utf-8"?>
<!-- Generator: Adobe Illustrator 15.1.0, SVG Export Plug-In . SVG Version: 6.00 Build 0)  -->
<!DOCTYPE svg PUBLIC "-//W3C//DTD SVG 1.1//EN" "http://www.w3.org/Graphics/SVG/1.1/DTD/svg11.dtd">
<svg version="1.1" id="Layer_1" xmlns="http://www.w3.org/2000/svg" xmlns:xlink="http://www.w3.org/1999/xlink" x="0px" y="0px"
	 width="32px" height="40px" viewBox="0 0 32 40" enable-background="new 0 0 32 40" xml:space="preserve">
<g id="Shape">
	<path fill="#31A850" d="M16,39.65C14.344,38.188,0.707,25.773,0.707,14.004c0-7.576,6.861-13.739,15.294-13.739
		c8.433,0,15.292,6.163,15.292,13.739C31.293,25.67,17.652,38.18,16,39.65z"/>
	<path fill="#FFFFFF" d="M16.001,0.516c8.294,0,15.042,6.051,15.042,13.489c0,11.236-12.822,23.306-15.043,25.312
		C13.776,37.324,0.957,25.34,0.957,14.004C0.957,6.567,7.706,0.516,16.001,0.516 M16.001,0.016c-8.585,0-15.544,6.263-15.544,13.989
		c0,12.729,15.544,25.979,15.544,25.979s15.542-13.363,15.542-25.979C31.543,6.278,24.585,0.016,16.001,0.016L16.001,0.016z"/>
</g>
<circle id="Oval" fill="#31A850" cx="16.001" cy="15.559" r="11.647"/>
<g>
	<title>Layer 1</title>
	<g id="Ebene_2">
		<g id="Ebene_1-2">
			<path id="svg_1" fill="#FFDF4D" d="M6.316,23.323c-0.487-0.138-0.728-1.319-0.699-1.879c0.14-2.509,0.058-3.126,0.194-5.632
				c1.335,0.185,2.377-0.119,3.743-0.083c1.841-0.534,2.273-0.461,4.063-1.124c0.549,1.489,1.597,1.592,2.249,2.99
				c-1.161,1.479-1.604,3.33-2.49,4.951c-0.914,0.641-1.824,1.29-2.742,1.932C9.041,24.275,7.976,23.271,6.316,23.323L6.316,23.323z
				"/>
			<path id="svg_2" fill="#FEC900" d="M10.625,24.48l2.76-1.934c0.734,0.781,1.758,1.162,2.662,1.658
				c1.968,1.105,3.791,2.532,5.935,3.314c-2.679,0.524-4.295,0.119-6.428,0.218c-0.625,0.027-1.25,0.018-1.878,0.022l-2.322-0.113
				L10.625,24.48z"/>
			<path id="svg_3" fill="#FEC900" d="M25.349,24.281c-0.165,1.933-0.991,2.677-2.693,2.901c0.371-2.532-0.299-4.736-2.092-6.601
				c-0.436-0.509-0.832-1.047-1.195-1.607l0,0c2.444,0.7,4.479,0.086,6.094-1.904c0.348,0.462,0.466,0.986,0.699,1.539
				c-0.459,0.274-0.551,0.393-1.007,0.673c-0.818,0.504-2.321,0.938-2.191,1.639c0.12,0.793,1.808,0.793,2.767,1.112L25.349,24.281z
				"/>
			<path id="svg_4" fill="#EFB100" d="M14.05,4.591c0,2.284-4.479,8.854-4.493,11.139c-1.366-0.036-2.407,0.268-3.743,0.083
				c1.161-1.895,2.092-4.694,3.246-6.59C9.181,9.021,13.794,4.591,14.05,4.591z"/>
			<path id="svg_5" fill="#EFB100" d="M25.729,22.033c-0.959-0.319-2.84-0.319-2.978-1.137c-0.118-0.705,1.562-1.133,2.381-1.634
				c0.456-0.291,0.552-0.387,1.009-0.663C26.344,20.597,26.726,20.911,25.729,22.033z"/>
			<path id="svg_6" fill="#EFB100" d="M10.643,24.468c0.148,0.931,0.903,2.169,0.699,3.164c-1.9-1.06-3.374-2.901-5.026-4.309
				C7.976,23.271,9.038,24.271,10.643,24.468z"/>
			<path id="svg_7" fill="#EFB100" d="M19.373,18.963c0.383,0.55,0.799,1.076,1.253,1.57c1.795,1.864,2.398,4.117,2.029,6.651l0,0
				c-0.25,0.125-0.316,0.145-0.533,0.266c-0.064,0.036-0.13,0.057-0.201,0.063c-2.16-0.77-3.94-2.213-5.909-3.32
				c-0.899-0.505-1.907-0.87-2.642-1.646c0.886-1.621,1.318-3.483,2.49-4.951C17.039,18.057,18.21,18.5,19.373,18.963L19.373,18.963
				z"/>
			<path id="svg_8" fill="#FEC900" d="M14.05,4.591l2.34,0.777l0.044,0.211v0.925l-0.143,0.724l-0.479,1.986l-0.127,0.815l0.054,0.4
				l0.242,0.352l0.869,0.836l0.03,0.025c0.702,0.659,3.966,3.23,3.586,4.116c-0.458,1.076-0.757,2.087-1.16,3.192l-3.512-1.252
				c-0.651-1.398-1.605-1.526-2.611-2.486c-1.939,0.125-1.776-0.018-3.617,0.517C9.571,13.445,14.033,6.875,14.05,4.591"/>
			<path id="svg_9" fill="#FFDF4D" d="M19.31,18.951c0.388-1.105,0.646-2.272,1.104-3.35c0.382-0.871-4.162-4.245-4.643-5.087
				c-0.435-0.787,0.911-3.603,0.619-5.146c1.452,0.29,3.604,4.69,4.693,5.384c1.42,0.905,2.818,2.612,3.611,4.147
				c0.349,0.673,0.504,1.451,0.75,2.169C23.798,19.115,21.72,19.741,19.31,18.951L19.31,18.951z"/>
		</g>
	</g>
</g>
<g>
	<path fill-rule="evenodd" clip-rule="evenodd" fill="#383838" d="M17.545,23.396c0.16-0.031,0.281-0.202,0.379-0.316
		c1.561-1.829,3.119-3.587,4.854-5.359c0.898-0.917,1.795-1.78,2.805-2.647c0.482-0.412,1.014-0.83,1.545-1.197
		c0.568-0.393,1.223-0.861,1.893-0.946c0.631-0.08,1.137,0.16,1.229,0.568c0.107,0.481-0.346,0.913-0.631,1.197
		c-0.914,0.915-1.957,1.881-2.805,2.806c-3.318,3.615-5.816,7.784-7.91,12.733c-0.201,0.471-0.314,1.09-0.758,1.104
		c-0.482,0.016-0.707-0.729-0.885-1.039c-0.66-1.164-1.556-2.537-2.236-3.5c-0.896-1.26-1.923-2.502-3.121-3.593
		c-0.184-0.168-0.401-0.271-0.44-0.504c-0.137-0.803,0.582-1.213,1.387-1.166c0.812,0.047,1.676,0.428,2.49,0.787
		C16.149,22.683,16.885,22.997,17.545,23.396z"/>
</g>
</svg>
