<?xml version="1.0" encoding="utf-8"?>
<!-- Generator: Adobe Illustrator 15.1.0, SVG Export Plug-In . SVG Version: 6.00 Build 0)  -->
<svg version="1.2" baseProfile="tiny" id="Layer_1" xmlns="http://www.w3.org/2000/svg" xmlns:xlink="http://www.w3.org/1999/xlink"
	 x="0px" y="0px" width="32px" height="40px" viewBox="0 0 32 40" xml:space="preserve">
<circle fill="#FFFFFF" cx="16.001" cy="15.559" r="11.647"/>
<g>
	<g>
		<g>
			<path fill="#595959" d="M23.45,17.763h-0.917c-0.295,0-0.532,0.238-0.532,0.53c0,0.294,0.237,0.532,0.532,0.532h0.917
				c0.311,0,0.562,0.255,0.562,0.57s-0.251,0.572-0.562,0.572h-2.288c-0.592,1.318-0.448,0.998-0.479,1.062h2.768
				c0.896,0,1.625-0.732,1.625-1.634C25.075,18.495,24.346,17.763,23.45,17.763z"/>
		</g>
	</g>
	<g>
		<g>
			<path fill="#595959" d="M22.045,14.478l-2.611-0.029l-1.332-2.054l1.479,1.301l0.173-0.68c0.152-0.602-0.213-1.215-0.815-1.367
				l-1.946-0.493c-0.604-0.154-1.215,0.212-1.369,0.815c-0.161,0.64-0.31,1.226-0.444,1.758l1.838,0.049l-0.184-0.56l1.553,2.393
				c0.139,0.212,0.373,0.342,0.627,0.344l3.016,0.033c0.003,0,0.007,0,0.009,0c0.414,0,0.751-0.332,0.755-0.747
				C22.797,14.826,22.463,14.483,22.045,14.478z"/>
		</g>
	</g>
	<g>
		<g>
			<path fill="#595959" d="M19.786,16.982l-1.01-0.109c0,0-0.691-0.016-0.921-0.635c-0.281,0.329-0.698,0.534-1.164,0.529
				l-0.987-0.012c0.066,0.081,0.128,0.166,0.183,0.257c0.245,0.419,0.305,0.922,0.173,1.385c0.079,0.014-0.092-0.007,2.316,0.256
				l-1.389,3.254c-0.196,0.461,0.018,0.991,0.478,1.188c0.461,0.197,0.993-0.017,1.189-0.478l1.868-4.378
				C20.76,17.68,20.391,17.047,19.786,16.982z"/>
		</g>
	</g>
	<g>
		<g>
			<path fill="#595959" d="M19.538,7.135c-1.066-0.271-2.152,0.375-2.422,1.443c-0.271,1.07,0.378,2.153,1.442,2.424
				c1.063,0.269,2.151-0.373,2.422-1.445C21.251,8.491,20.605,7.406,19.538,7.135z"/>
		</g>
	</g>
	<g>
		<g>
			<path fill="#595959" d="M16.715,14.5l-2.611-0.028l-1.332-2.055l1.48,1.301l0.172-0.68c0.153-0.603-0.211-1.215-0.815-1.368
				l-1.945-0.493c-0.603-0.152-1.216,0.212-1.368,0.814c-0.453,1.791-0.798,3.151-1.051,4.151c-0.273,1.087,0.476,2.167,1.592,2.29
				l2.21,0.241l-1.389,3.254c-0.196,0.46,0.02,0.992,0.478,1.188c0.461,0.197,0.993-0.017,1.189-0.478l1.868-4.378
				c0.112-0.264,0.094-0.565-0.052-0.813c-0.144-0.249-0.398-0.413-0.685-0.443l-1.01-0.11c0,0-0.766-0.077-1.021-0.851l-0.92-2.803
				l1.553,2.393c0.139,0.212,0.373,0.342,0.625,0.344l3.018,0.034c0.003,0,0.005,0,0.008,0c0.413,0,0.75-0.334,0.755-0.748
				C17.467,14.872,17.151,14.505,16.715,14.5z"/>
		</g>
	</g>
	<g>
		<g>
			<path fill="#595959" d="M14.21,7.158c-1.068-0.271-2.152,0.376-2.424,1.443c-0.271,1.069,0.38,2.153,1.444,2.422
				c1.062,0.271,2.149-0.372,2.422-1.443C15.923,8.513,15.277,7.428,14.21,7.158z"/>
		</g>
	</g>
	<g>
		<g>
			<path fill="#595959" d="M21.758,21.581H20.88c-0.295,0-0.532,0.237-0.532,0.53c0,0.295,0.237,0.532,0.532,0.532h0.878
				c0.3,0,0.562,0.284,0.562,0.609s-0.262,0.611-0.562,0.611c-1.114,0-4.157,0-5.327,0c0-0.323,0-2.545,0-2.854l0.693-1.626
				l-1.396-0.176l-0.794,1.862h0.426c0,0.327,0,2.467,0,2.795c-0.46,0-4.037,0-4.599,0c0-0.275,0-2.449,0-2.795h0.325l0.709-1.662
				l-1.053-0.116c-0.618-0.067-1.188-0.344-1.621-0.777l-0.723,1.607c-0.198,0.439,0.116,0.948,0.614,0.948h0.677
				c0,0.327,0,2.467,0,2.795H7.456c-0.293,0-0.531,0.236-0.531,0.53c0,0.295,0.238,0.533,0.531,0.533h14.302
				c0.88,0,1.624-0.768,1.624-1.675S22.638,21.581,21.758,21.581z"/>
		</g>
	</g>
</g>
<g>
	<path fill="#49C4EA" d="M16.001,0.265c-8.433,0-15.294,6.163-15.294,13.739c0,11.77,13.637,24.184,15.293,25.646
		c1.652-1.471,15.293-13.98,15.293-25.646C31.293,6.428,24.434,0.265,16.001,0.265z M16.001,27.206
		c-6.433,0-11.647-5.215-11.647-11.647c0-6.433,5.214-11.647,11.647-11.647c6.433,0,11.647,5.214,11.647,11.647
		C27.648,21.991,22.434,27.206,16.001,27.206z"/>
	<path fill="#FFFFFF" d="M16.001,0.516c8.294,0,15.042,6.051,15.042,13.489c0,11.236-12.822,23.306-15.043,25.312
		C13.776,37.324,0.957,25.34,0.957,14.004C0.957,6.567,7.706,0.516,16.001,0.516 M16.001,0.016c-8.585,0-15.544,6.263-15.544,13.989
		c0,12.729,15.544,25.979,15.544,25.979s15.542-13.363,15.542-25.979C31.543,6.278,24.585,0.016,16.001,0.016L16.001,0.016z"/>
</g>
</svg>
