<?xml version="1.0" encoding="utf-8"?>
<!-- Generator: Adobe Illustrator 15.1.0, SVG Export Plug-In . SVG Version: 6.00 Build 0)  -->
<!DOCTYPE svg PUBLIC "-//W3C//DTD SVG 1.1//EN" "http://www.w3.org/Graphics/SVG/1.1/DTD/svg11.dtd">
<svg version="1.1" id="Layer_1" xmlns="http://www.w3.org/2000/svg" xmlns:xlink="http://www.w3.org/1999/xlink" x="0px" y="0px"
	 width="32px" height="40px" viewBox="0 0 32 40" enable-background="new 0 0 32 40" xml:space="preserve">
<g id="Shape">
	<path fill="#31A850" d="M16,39.65C14.344,38.188,0.707,25.773,0.707,14.004c0-7.576,6.861-13.739,15.294-13.739
		c8.433,0,15.292,6.163,15.292,13.739C31.293,25.67,17.652,38.18,16,39.65z"/>
	<path fill="#FFFFFF" d="M16.001,0.516c8.294,0,15.042,6.051,15.042,13.489c0,11.236-12.822,23.306-15.043,25.312
		C13.776,37.324,0.957,25.34,0.957,14.004C0.957,6.567,7.706,0.516,16.001,0.516 M16.001,0.016c-8.585,0-15.544,6.263-15.544,13.989
		c0,12.729,15.544,25.979,15.544,25.979s15.542-13.363,15.542-25.979C31.543,6.278,24.585,0.016,16.001,0.016L16.001,0.016z"/>
</g>
<circle id="Oval" fill="#FFFFFF" cx="16.001" cy="15.559" r="11.647"/>
<g>
	<path d="M12.306,21.426c0.445,0.187,0.882,0.396,1.319,0.598c0.298,0.138,0.601,0.257,0.91,0.375
		c0.767,0.193,1.54,0.369,2.304,0.567c0.525,0.132,1.053,0.217,1.57,0.347c0.27,0.065,0.531,0.159,0.789,0.244
		c0.393,0.12,0.777,0.264,1.16,0.417l-0.1-1.02c-0.012-0.122-0.039-0.243-0.012-0.365c0.012-0.056,0.033-0.098,0.061-0.144
		c0.033-0.044,0.064-0.083,0.111-0.104c0.061-0.04,0.125-0.062,0.186-0.099l0.646-0.409c-0.807-0.114-1.6-0.258-2.389-0.456
		c-0.598-0.156-1.186-0.336-1.768-0.548c-0.651-0.231-1.302-0.475-1.959-0.699c-0.601-0.205-1.212-0.364-1.825-0.519
		c-0.635-0.155-1.27-0.287-1.909-0.402c-0.453-0.088-0.91-0.167-1.369-0.236c-0.215,0.193-0.38,0.396-0.49,0.677
		c-0.099,0.255-0.133,0.547-0.088,0.821c0.028,0.177,0.095,0.336,0.187,0.492c0.342-0.017,0.689-0.023,1.031,0.004
		c0.27,0.026,0.546,0.046,0.806,0.133C11.764,21.189,12.041,21.294,12.306,21.426z"/>
	<path d="M15.521,18.93c0.054-0.378,0.144-0.744,0.286-1.106c0.242-0.603,0.573-1.175,1.031-1.673
		c0.139-0.147,0.297-0.276,0.457-0.405c0.369-0.295,0.719-0.605,1.014-0.958c0.83-0.993,1.33-2.196,1.473-3.428
		c0.051-0.438,0.061-0.879,0.023-1.316c-0.033-0.329-0.105-0.649-0.186-0.969c-0.199-0.563-0.377-1.132-0.586-1.686
		c-0.121-0.315-0.244-0.625-0.404-0.921c-0.17-0.316-0.375-0.616-0.578-0.912c-0.258-0.379-0.551-0.73-0.855-1.08
		c-0.049,0.445-0.121,0.883-0.254,1.318c-0.148,0.49-0.369,0.958-0.635,1.411c-0.076,0.145-0.164,0.283-0.259,0.416
		c-0.159,0.239-0.318,0.49-0.528,0.7L14.282,9.56c-1.583,1.58-2.431,3.868-1.715,5.948c0.292,0.863,0.799,1.677,1.479,2.348
		C14.489,18.294,14.973,18.6,15.521,18.93z"/>
	<path d="M16.958,18.973c0.227-0.188,0.465-0.339,0.734-0.468c0.285-0.139,0.59-0.234,0.916-0.286
		c0.254-0.04,0.514-0.029,0.768-0.072c0.727-0.129,1.428-0.415,2.008-0.83c0.479-0.339,0.871-0.794,1.129-1.29
		c0.293-0.569,0.408-1.208,0.377-1.827c-0.027-0.597-0.115-1.199-0.23-1.791c-0.15-0.75-0.398-1.484-0.719-2.191
		c-0.225-0.488-0.492-0.951-0.785-1.409l-0.143-0.05c0.023,0.021,0.027,0.05,0.033,0.073c0.156,0.807,0.113,1.623,0.076,2.433
		c-0.016,0.34-0.027,0.698-0.1,1.031c-0.094,0.429-0.23,0.855-0.428,1.255c-0.211,0.405-0.541,0.744-0.895,1.054
		c-0.344,0.297-0.717,0.554-1.021,0.883c-0.34,0.372-0.625,0.787-0.857,1.223c-0.242,0.463-0.492,0.926-0.652,1.417
		C17.075,18.409,17.015,18.689,16.958,18.973z"/>
	<path d="M20.616,21.118l1.924-0.513c0.096-0.161,0.156-0.321,0.17-0.508c0.018-0.216-0.037-0.429-0.154-0.612
		c-0.115-0.193-0.27-0.309-0.457-0.407l-5.236,0.917c0.467,0.175,0.943,0.346,1.422,0.495c0.303,0.094,0.617,0.171,0.928,0.266
		C19.673,20.896,20.14,21.013,20.616,21.118z"/>
	<path d="M15.232,18.881v-0.129c-0.463-0.187-0.887-0.378-1.29-0.654c-0.86-0.596-1.56-1.436-1.87-2.377
		c-0.188-0.569-0.259-1.165-0.221-1.752c0.027-0.361,0.115-0.701,0.216-1.055c0.056-0.187,0.095-0.377,0.11-0.572
		c0.012-0.239,0.016-0.48-0.022-0.717c-0.045-0.267-0.11-0.53-0.183-0.787h-0.099c-0.016,0.187-0.039,0.372-0.087,0.554
		c-0.05,0.177-0.126,0.342-0.209,0.51c-0.066,0.119-0.144,0.234-0.236,0.344c-0.144,0.171-0.309,0.328-0.453,0.496
		c-0.445,0.496-0.688,1.132-0.768,1.762c-0.099,0.869,0.177,1.761,0.777,2.453c0.342,0.396,0.788,0.717,1.285,0.944
		c0.689,0.315,1.418,0.569,2.156,0.773C14.631,18.756,14.931,18.828,15.232,18.881z"/>
	<path d="M14.737,22.699c-0.354-0.076-0.707-0.175-1.054-0.285c-0.296-0.095-0.596-0.193-0.882-0.319
		c-0.38-0.175-0.756-0.365-1.125-0.567l-1.434,0.457c0.281,0.005,0.513,0.049,0.75,0.22c0.335,0.232,0.541,0.617,0.541,1.032
		c0.004,0.235-0.054,0.429-0.156,0.638L14.737,22.699z"/>
	<path d="M14.737,22.699c-0.354-0.076-0.707-0.175-1.054-0.285c-0.296-0.095-0.596-0.193-0.882-0.319
		c-0.38-0.175-0.756-0.365-1.125-0.567l-1.434,0.457c0.281,0.005,0.513,0.049,0.75,0.22c0.335,0.232,0.541,0.617,0.541,1.032
		c0.004,0.235-0.054,0.429-0.156,0.638L14.737,22.699z"/>
	<path d="M10.093,24.282c0.271-0.022,0.491-0.106,0.689-0.309c0.282-0.292,0.38-0.711,0.221-1.092
		c-0.133-0.314-0.408-0.546-0.734-0.623c-0.38-0.083-0.776,0.127-0.988,0.446c-0.115,0.17-0.156,0.353-0.176,0.557
		c0.027,0.273,0.099,0.506,0.304,0.711C9.607,24.176,9.823,24.26,10.093,24.282z"/>
	<path d="M21.702,24.078c0.203,0,0.385-0.065,0.551-0.205c0.254-0.218,0.418-0.552,0.467-0.881c0.039-0.294-0.025-0.515-0.182-0.75
		c-0.016-0.035-0.037-0.066-0.064-0.096c-0.023-0.026-0.057-0.045-0.084-0.061c-0.033-0.012-0.072-0.012-0.105-0.012
		c-0.027,0-0.066,0-0.094,0.012l-0.936,0.509c-0.037,0.026-0.072,0.083-0.104,0.122c-0.018,0.021-0.029,0.057-0.047,0.087
		c-0.016,0.027-0.035,0.061-0.045,0.094c-0.021,0.056-0.016,0.1,0,0.16l0.148,0.719c0.016,0.076,0.061,0.16,0.111,0.216
		c0.064,0.064,0.158,0.11,0.248,0.115C21.62,24.11,21.659,24.1,21.702,24.078z"/>
</g>
</svg>
