<?xml version="1.0" encoding="utf-8"?>
<!-- Generator: Adobe Illustrator 15.1.0, SVG Export Plug-In . SVG Version: 6.00 Build 0)  -->
<!DOCTYPE svg PUBLIC "-//W3C//DTD SVG 1.1//EN" "http://www.w3.org/Graphics/SVG/1.1/DTD/svg11.dtd">
<svg version="1.1" id="Layer_1" xmlns="http://www.w3.org/2000/svg" xmlns:xlink="http://www.w3.org/1999/xlink" x="0px" y="0px"
	 width="32px" height="40px" viewBox="0 0 32 40" enable-background="new 0 0 32 40" xml:space="preserve">
<g id="Shape">
	<path fill="#3A3A3A" d="M16,39.65C14.344,38.188,0.707,25.773,0.707,14.004c0-7.576,6.861-13.739,15.294-13.739
		c8.433,0,15.292,6.163,15.292,13.739C31.293,25.67,17.652,38.18,16,39.65z"/>
	<path fill="#FFFFFF" d="M16.001,0.516c8.294,0,15.042,6.051,15.042,13.489c0,11.236-12.822,23.306-15.043,25.312
		C13.776,37.324,0.957,25.34,0.957,14.004C0.957,6.567,7.706,0.516,16.001,0.516 M16.001,0.016c-8.585,0-15.544,6.263-15.544,13.989
		c0,12.729,15.544,25.979,15.544,25.979s15.542-13.363,15.542-25.979C31.543,6.278,24.585,0.016,16.001,0.016L16.001,0.016z"/>
</g>
<g>
	<path id="path1390" fill="none" stroke="#FFFFFF" stroke-width="2.1813" stroke-linejoin="round" d="M10.351,11.383l4.099-6.832
		c0,0,1.647-1.596,3.09-0.153l3.819,6.475"/>
	<g enable-background="new    ">
		<path fill="#FFFFFF" d="M14.62,18.206v-0.987h-2.009v-0.824l2.129-3.116h0.79v3.113h0.608v0.827H15.53v0.987H14.62z M14.62,16.392
			v-1.677l-1.128,1.677H14.62z"/>
		<path fill="#FFFFFF" d="M18.179,13.279c0.475,0,0.847,0.169,1.114,0.509c0.319,0.401,0.479,1.068,0.479,1.999
			c0,0.928-0.16,1.595-0.482,2.001c-0.265,0.335-0.636,0.502-1.11,0.502c-0.478,0-0.863-0.183-1.155-0.55
			c-0.293-0.367-0.438-1.021-0.438-1.963c0-0.924,0.16-1.589,0.481-1.995C17.332,13.446,17.703,13.279,18.179,13.279z
			 M18.179,14.059c-0.114,0-0.216,0.036-0.305,0.109c-0.09,0.072-0.158,0.203-0.208,0.39c-0.064,0.243-0.097,0.653-0.097,1.229
			s0.028,0.971,0.087,1.186c0.058,0.216,0.13,0.359,0.219,0.431c0.088,0.072,0.189,0.107,0.304,0.107
			c0.113,0,0.215-0.036,0.305-0.109c0.088-0.073,0.158-0.202,0.207-0.39c0.064-0.241,0.098-0.649,0.098-1.225
			s-0.03-0.971-0.088-1.187s-0.132-0.36-0.219-0.432C18.393,14.095,18.292,14.059,18.179,14.059z"/>
	</g>
	<g enable-background="new    ">
		<path fill="#FFFFFF" d="M12.495,31.473v-4.908h3.364v0.832h-2.374v1.16h2.048v0.83h-2.048v2.086H12.495z"/>
		<path fill="#FFFFFF" d="M16.676,31.473v-4.908h3.639v0.832h-2.647v1.086h2.464v0.828h-2.464v1.334h2.741v0.828H16.676z"/>
	</g>
	<path id="path3262" fill="none" stroke="#FFFFFF" stroke-width="2.1813" stroke-linejoin="round" d="M14.812,23.381l-7.965-0.135
		c0,0-2.206-0.627-1.678-2.6l3.698-6.543"/>
	<path id="path3264" fill="none" stroke="#FFFFFF" stroke-width="2.1813" stroke-linejoin="round" d="M22.973,13.518l3.867,6.965
		c0,0,0.559,2.224-1.413,2.753l-7.516,0.068"/>
	<path id="head2" fill="#FFFFFF" d="M14.845,23.326l4.573-2.693v5.301L14.845,23.326z"/>
	<path id="head3" fill="#FFFFFF" d="M5.872,14.115l4.571-2.693v5.302L5.872,14.115z"/>
	<path id="head1" fill="#FFFFFF" d="M18.344,10.912l4.571-2.693v5.302L18.344,10.912z"/>
</g>
</svg>
