<?xml version="1.0" encoding="utf-8"?>
<!-- Generator: Adobe Illustrator 15.1.0, SVG Export Plug-In . SVG Version: 6.00 Build 0)  -->
<!DOCTYPE svg PUBLIC "-//W3C//DTD SVG 1.1//EN" "http://www.w3.org/Graphics/SVG/1.1/DTD/svg11.dtd">
<svg version="1.1" id="Layer_1" xmlns="http://www.w3.org/2000/svg" xmlns:xlink="http://www.w3.org/1999/xlink" x="0px" y="0px"
	 width="32px" height="40px" viewBox="0 0 32 40" enable-background="new 0 0 32 40" xml:space="preserve">
<g id="Shape">
	<path fill="#3366FF" d="M16,39.65C14.344,38.188,0.707,25.773,0.707,14.004c0-7.576,6.861-13.739,15.294-13.739
		c8.433,0,15.292,6.163,15.292,13.739C31.293,25.67,17.652,38.18,16,39.65z"/>
	<path fill="#FFFFFF" d="M16.001,0.516c8.294,0,15.042,6.051,15.042,13.489c0,11.236-12.822,23.306-15.043,25.312
		C13.776,37.324,0.957,25.34,0.957,14.004C0.957,6.567,7.706,0.516,16.001,0.516 M16.001,0.016c-8.585,0-15.544,6.263-15.544,13.989
		c0,12.729,15.544,25.979,15.544,25.979s15.542-13.363,15.542-25.979C31.543,6.278,24.585,0.016,16.001,0.016L16.001,0.016z"/>
</g>
<circle id="Oval" fill="#FFFFFF" cx="16.001" cy="15.559" r="11.647"/>
<g>
	<path d="M16.001,7.917c1.263,0,2.287,1.025,2.287,2.292c0,1.268-1.023,2.293-2.287,2.293c-1.264,0-2.287-1.025-2.287-2.293
		C13.714,8.942,14.737,7.917,16.001,7.917z M13.805,15.14c0-0.843,0.481-1.579,2.197-1.579s2.196,0.735,2.196,1.579v8.714
		c0,0.844-0.48,1.58-2.196,1.58s-2.197-0.736-2.197-1.58V15.14z"/>
</g>
</svg>
