<?xml version="1.0" encoding="utf-8"?>
<!-- Generator: Adobe Illustrator 15.1.0, SVG Export Plug-In . SVG Version: 6.00 Build 0)  -->
<!DOCTYPE svg PUBLIC "-//W3C//DTD SVG 1.1//EN" "http://www.w3.org/Graphics/SVG/1.1/DTD/svg11.dtd">
<svg version="1.1" id="Layer_1" xmlns="http://www.w3.org/2000/svg" xmlns:xlink="http://www.w3.org/1999/xlink" x="0px" y="0px"
	 width="32px" height="40px" viewBox="0 0 32 40" enable-background="new 0 0 32 40" xml:space="preserve">
<g id="Shape">
	<path fill="#D339C4" d="M16,39.65C14.344,38.188,0.707,25.773,0.707,14.004c0-7.576,6.861-13.739,15.294-13.739
		c8.433,0,15.292,6.163,15.292,13.739C31.293,25.67,17.652,38.18,16,39.65z"/>
	<path fill="#FFFFFF" d="M16.001,0.516c8.294,0,15.042,6.051,15.042,13.489c0,11.236-12.822,23.306-15.043,25.312
		C13.776,37.324,0.957,25.34,0.957,14.004C0.957,6.567,7.706,0.516,16.001,0.516 M16.001,0.016c-8.585,0-15.544,6.263-15.544,13.989
		c0,12.729,15.544,25.979,15.544,25.979s15.542-13.363,15.542-25.979C31.543,6.278,24.585,0.016,16.001,0.016L16.001,0.016z"/>
</g>
<circle id="Oval" fill="#FFFFFF" cx="16.001" cy="15.559" r="11.647"/>
<rect x="23.597" y="11.857" fill="#707487" width="0.674" height="8.748"/>
<path fill="#5B5D6E" d="M23.597,20.943h1.01c0.187,0,0.339-0.151,0.339-0.338l0,0c0-0.185-0.152-0.335-0.339-0.335h-1.01
	c-0.185,0-0.335,0.15-0.335,0.335l0,0C23.262,20.792,23.412,20.943,23.597,20.943z"/>
<rect x="8.119" y="11.857" fill="#707487" width="0.673" height="8.748"/>
<path fill="#D2B98F" d="M25.616,17.242H6.772c-0.186,0-0.336-0.151-0.336-0.337v-0.337c0-0.186,0.15-0.336,0.336-0.336h18.844
	c0.187,0,0.337,0.15,0.337,0.336v0.337C25.953,17.091,25.803,17.242,25.616,17.242z"/>
<g>
	<path fill="#FFDCA0" d="M24.945,14.886h-17.5c-0.186,0-0.336-0.15-0.336-0.336v-1.346c0-0.186,0.15-0.336,0.336-0.336h17.5
		c0.185,0,0.335,0.15,0.335,0.336v1.346C25.28,14.735,25.13,14.886,24.945,14.886z"/>
	<path fill="#FFDCA0" d="M24.945,12.193h-17.5c-0.186,0-0.336-0.15-0.336-0.336v-1.346c0-0.186,0.15-0.336,0.336-0.336h17.5
		c0.185,0,0.335,0.151,0.335,0.336v1.346C25.28,12.043,25.13,12.193,24.945,12.193z"/>
</g>
<g>
	<circle fill="#A5967D" cx="8.455" cy="11.184" r="0.336"/>
	<circle fill="#A5967D" cx="23.934" cy="11.184" r="0.336"/>
	<circle fill="#A5967D" cx="8.455" cy="13.876" r="0.337"/>
	<circle fill="#A5967D" cx="23.934" cy="13.876" r="0.337"/>
</g>
<path fill="#5B5D6E" d="M8.792,20.943h-1.01c-0.186,0-0.336-0.151-0.336-0.338l0,0c0-0.185,0.151-0.335,0.336-0.335h1.01
	c0.186,0,0.336,0.15,0.336,0.335l0,0C9.128,20.792,8.978,20.943,8.792,20.943z"/>
</svg>
