<?xml version="1.0" encoding="utf-8"?>
<!-- Generator: Adobe Illustrator 15.1.0, SVG Export Plug-In . SVG Version: 6.00 Build 0)  -->
<!DOCTYPE svg PUBLIC "-//W3C//DTD SVG 1.1//EN" "http://www.w3.org/Graphics/SVG/1.1/DTD/svg11.dtd">
<svg version="1.1" id="Layer_1" xmlns="http://www.w3.org/2000/svg" xmlns:xlink="http://www.w3.org/1999/xlink" x="0px" y="0px"
	 width="32px" height="40px" viewBox="0 0 32 40" enable-background="new 0 0 32 40" xml:space="preserve">
<g id="Shape">
	<path fill="#E53917" d="M16,39.651C14.344,38.188,0.707,25.773,0.707,14.004c0-7.576,6.861-13.739,15.294-13.739
		c8.432,0,15.292,6.163,15.292,13.739C31.293,25.67,17.653,38.179,16,39.651z"/>
	<path fill="#FFFFFF" d="M16.001,0.516c8.294,0,15.042,6.051,15.042,13.489c0,11.236-12.822,23.306-15.043,25.312
		C13.776,37.324,0.957,25.34,0.957,14.004C0.957,6.567,7.706,0.516,16.001,0.516 M16.001,0.016c-8.585,0-15.544,6.263-15.544,13.989
		c0,12.729,15.544,25.98,15.544,25.98s15.542-13.364,15.542-25.98C31.543,6.278,24.585,0.016,16.001,0.016L16.001,0.016z"/>
</g>
<circle id="Oval" fill="#FFFFFF" cx="16.001" cy="15.559" r="11.647"/>
<g>
	<path fill="#FEEC4F" d="M23.765,17.395c0.277,0.963,0,2.263-0.259,3.321c-0.24,0.983-1.066,1.285-2.285,1.034
		c-0.446-0.419-1.107-0.888-1.509-1.38c-0.692-0.848-0.093-1.949,0.345-2.889c0.266-0.636,0.61-1.226,1.034-1.768
		c-0.313,0.903-0.658,1.794-1.034,2.674c-0.209,0.647,0.148,1.138,0.646,1.681c0.478,0.521,0.893,0.992,1.595,1.078
		c0.301-0.435,0.687-2.048,0.733-2.932c0.066-1.233-0.431-1.608-1.163-2.07C22.603,16.459,23.314,16.796,23.765,17.395
		C24.042,18.358,23.314,16.796,23.765,17.395z"/>
	<path fill="#E7A604" d="M18.547,7.304c1.776,0.459,3.368,0.725,5.089,1.38c1.379,0.54,1.799,1.22,2.07,2.371
		c0.347,1.641,0.49,3.293,0.431,4.959c-0.054,0.205-2.032,2.438-2.112,2.329c0.028-0.215-0.041-0.333-0.044-0.518
		c0.378-0.456,0.5-1.167,0.519-1.983c0.127,0.303,0.247,0.614,0.387,0.906c0.692-0.142,1.173-0.494,1.122-1.38
		c-0.066-1.909-0.121-4.278-0.949-5.39c-0.458,1.223-0.831,2.474-1.12,3.751c0.029,0.244,0.043,0.488,0.042,0.733
		c-0.019,0.216-0.091-0.095-0.216-0.043c-0.586,0.477-1.17,0.958-1.811,1.38c-0.171,0.042-0.131-0.129-0.303-0.086
		c0.689-0.679,1.408-1.326,2.156-1.941c0.325-0.626,0.564-2.326,0.561-3.191c-0.001-0.299-0.072-0.82-0.216-1.035
		c-1.663-0.949-3.445-1.553-5.347-1.811c-0.423-0.034-0.703,0.013-0.948,0.215c-1.51,1.15-2.491,2.829-2.717,5.261
		c0.613,0.32,0.833,1.036,0.862,1.941c0.096,0.623,0.095,1.343,0.173,1.983c0.427,0.34,1.687,0.13,1.984,0.13
		c0.037,0.238-0.401,0.491-0.474,0.863c-0.153,0.776,0.406,1.666,0.43,2.242c-0.035,0.007-0.04-0.017-0.042-0.043
		c-0.121-0.512-0.312-0.953-0.388-1.509c-0.379-0.226-0.921-0.287-1.338-0.475c-0.735,1.102-1.698,1.964-2.889,2.587
		c0.315-0.547,0.494-1.231,0.69-1.896c0.336-0.938-0.719-2.097-1.293-2.113c-1.527,0.765-3.008,1.612-4.442,2.544
		c1.073-1.102,2.281-2.051,3.623-2.846c-0.237-1.83-0.733-3.823-0.475-5.865c0.534,0.2,0.86,0.607,1.38,0.82
		c0.087-0.013,0.084-0.117,0.172-0.129c-0.012,0.088-0.116,0.084-0.129,0.172c0.569,0.479,1.201,0.897,1.811,1.337
		c-0.074-0.811,0.392-2.404,0.173-2.933c-0.002-0.004-0.039,0.004-0.043,0C15.944,8.827,17.151,7.922,18.547,7.304
		C19.243,7.484,18.069,7.257,18.547,7.304z M12.467,12.133c-0.034,0.01-0.05,0.037-0.043,0.086
		c-0.212,1.418,0.239,2.808,0.431,4.097c0.392,0.288,1.004,0.631,1.38,0.992c0.145,0.141,0.438,0.422,0.474,0.604
		c0.127,0.632-0.468,1.236-0.518,1.94c0.499-0.349,1.105-0.591,1.423-1.121c0.439-0.671,0.234-1.732,0.043-2.803
		c-0.14-0.786-0.255-1.905-0.646-2.286C14.28,12.945,13.432,12.442,12.467,12.133C12.433,12.143,12.789,12.064,12.467,12.133z"/>
	<path fill="#FEEC4F" d="M17.857,7.951c0.245-0.203,0.525-0.25,0.948-0.216c1.901,0.258,3.684,0.862,5.347,1.811
		c0.144,0.214,0.215,0.736,0.216,1.035c0.004,0.865-0.235,2.564-0.561,3.19c-0.696,0.668-1.443,1.272-2.242,1.812
		c-0.226,0.023-0.419-0.255-0.69-0.259c-0.331-0.003-0.388,0.177-0.689,0.345c-0.054,0.048-0.089,0.038-0.086-0.043
		c0.756-0.54,1.452-1.136,2.112-1.769c0.317-1.526,1.438-4.88-0.904-4.916c-0.173,0-0.26-0.086-0.433-0.086
		c-1.866,1.842-3.667,3.75-4.786,6.339c-0.035-0.009-0.043-0.043-0.087-0.043c-0.029-0.905-0.249-1.621-0.862-1.941
		c0.354-0.585,0.269-1.384,0.56-2.07c0.625-1.125,1.474-2.045,2.544-2.759c0.896-0.222,1.94,0.405,2.933,0.474
		C20.182,8.442,19.107,8.109,17.857,7.951C18.103,7.749,19.107,8.109,17.857,7.951z"/>
	<path fill="#FAD731" d="M20.186,15.67c0.302-0.168,0.358-0.349,0.689-0.345c0.271,0.004,0.465,0.283,0.69,0.259
		c0.436-0.045,0.529-0.569,0.949-0.69c-0.226,0.336-0.701,0.421-0.863,0.819c0.172-0.043,0.131,0.129,0.303,0.086
		c0.772,0.578,1.947,0.754,2.026,2.027c0.003,0.183,0.072,0.301,0.044,0.517c0.068,0.094,0.154-0.159,0.258-0.172
		c-0.457,0.345-0.245,1.796-0.432,2.587c-0.034,0.14-0.089,0.254-0.172,0.345c-0.006-0.077,0.052-0.091,0.043-0.172
		c-0.429,0.312-0.676,0.856-1.337,0.947c-0.308,0.042-0.823,0.073-1.207-0.086c-0.607-0.249-0.879-1.18-1.553-1.251
		c-0.394-1.115-0.943-2.074-1.078-3.449c-0.496,0.187-1.013,0.245-1.552,0.172c0.782-0.268,1.703-0.395,2.198-0.949
		c0.047,0.134-0.294,0.25-0.388,0.389c0.379-0.378,0.796-0.708,1.251-0.993C19.896,15.792,20.309,15.791,20.186,15.67
		C20.487,15.502,20.309,15.791,20.186,15.67z M21.091,15.713c-0.424,0.543-0.77,1.132-1.035,1.768
		c-0.437,0.941-1.036,2.042-0.344,2.889c0.401,0.492,1.063,0.961,1.509,1.38c1.219,0.251,2.045-0.051,2.285-1.034
		c0.259-1.058,0.536-2.357,0.259-3.321C23.222,16.485,22.039,16.216,21.091,15.713C20.733,15.787,22.039,16.216,21.091,15.713z"/>
	<path fill="#FFEC33" d="M21.308,8.942c2.343,0.036,1.222,3.39,0.904,4.916c-0.66,0.632-1.356,1.229-2.112,1.769
		c-0.003,0.081,0.032,0.091,0.086,0.043c0.123,0.121-0.289,0.123-0.129,0.043c-0.455,0.284-0.872,0.615-1.251,0.993
		c0.094-0.138,0.435-0.255,0.389-0.389c-0.496,0.554-1.417,0.681-2.199,0.949c0.406,0.046,0.859-0.087,1.12-0.043
		c-0.035-0.008-0.04,0.017-0.042,0.043c-0.44,0.003-0.965,0.112-1.381,0c0.623-0.258,1.266-0.244,1.811-0.518
		c1.244-0.917,2.452-1.88,3.623-2.889c0.158-1.109,1.06-3.153,0.389-4.226C22.307,9.301,21.745,9.098,21.308,8.942
		C23.65,8.978,21.745,9.098,21.308,8.942z"/>
	<path fill="#FBEFA5" d="M15.141,13.211c0.226-2.432,1.207-4.111,2.717-5.26c1.25,0.158,2.324,0.491,3.32,0.905
		c-0.992-0.069-2.037-0.696-2.933-0.475c-1.07,0.714-1.919,1.634-2.544,2.76C15.41,11.828,15.495,12.626,15.141,13.211
		C15.367,10.78,15.495,12.626,15.141,13.211z"/>
	<path fill="#CB6B03" d="M13.113,11.444c0.604-0.475,1.179-0.978,1.812-1.423c0.004,0.004,0.041-0.004,0.043,0
		c0.219,0.528-0.247,2.122-0.173,2.933c-0.609-0.439-1.241-0.858-1.811-1.337C12.997,11.528,13.102,11.532,13.113,11.444
		C13.717,10.969,13.102,11.532,13.113,11.444z"/>
	<path fill="#FEEC4F" d="M23.938,13.729c0.289-1.278,0.662-2.528,1.12-3.751c0.828,1.112,0.882,3.481,0.949,5.39
		c-0.298-1.536-0.586-3.074-0.863-4.613c-0.443,1.065-0.849,2.169-1.164,3.363C23.883,14.072,23.964,13.847,23.938,13.729
		C24.087,12.517,23.964,13.847,23.938,13.729z"/>
	<path fill="#FBEFA5" d="M8.24,19.292c1.22-0.805,2.399-1.667,3.537-2.587c-0.286-1.827-0.711-3.88-0.518-5.908
		c-1.323,0.114-2.469,0.405-3.536,0.776C7.491,11.87,7.29,12.186,7.12,12.522c0.173-0.862,0.878-1.192,1.725-1.38
		c0.916-0.12,1.64-0.429,2.716-0.387c-0.258,2.041,0.238,4.035,0.475,5.864c-1.466,1.052-2.889,2.159-4.269,3.32
		c-0.035-0.037-0.119-0.025-0.129-0.087C7.87,19.698,8.034,19.474,8.24,19.292C8.669,19.117,8.034,19.474,8.24,19.292z"/>
	<path fill="#FEEC4F" d="M7.335,12.133c0.083-0.232,0.254-0.377,0.388-0.56c1.067-0.371,2.213-0.662,3.536-0.776
		c-0.193,2.029,0.232,4.082,0.518,5.908c-0.858,0.579-1.539,1.335-2.458,1.853c0.488-0.46,1.112-0.784,1.595-1.25
		c-0.301-1.782-0.692-3.705-0.518-5.821c-1.043,0.011-2.049,0.226-3.018,0.646C7.364,12.133,7.35,12.133,7.335,12.133
		C7.418,11.901,7.35,12.133,7.335,12.133z"/>
	<path fill="#FFEC33" d="M26.008,15.368c0.051,0.886-0.43,1.238-1.122,1.38c-0.344-0.76-0.646-1.536-0.905-2.329
		c-0.021-0.194-0.175-0.485-0.042-0.69c0.025,0.118-0.056,0.343,0.042,0.389c0.315-1.194,0.721-2.298,1.164-3.363
		C25.422,12.294,25.71,13.832,26.008,15.368C26.059,16.253,25.913,15.724,26.008,15.368z"/>
	<path fill="#FDD401" d="M7.335,12.133c0.014,0,0.029,0,0.043,0c0.417-0.417,1.344-0.323,1.94-0.56
		c-0.449,2.456-0.822,5.214-1.078,7.719c-0.207,0.182-0.372,0.406-0.604,0.56c-1.068-0.662-3.058-1.571-2.89-2.371
		C4.807,17.197,7.033,12.813,7.335,12.133C7.341,12.121,7.313,12.312,7.335,12.133z"/>
	<path fill="#FBEFA5" d="M12.467,12.133c0.965,0.309,1.813,0.812,2.544,1.509c0.392,0.38,0.507,1.5,0.646,2.286
		c0.191,1.071,0.396,2.132-0.043,2.803c-0.107,0.095-0.183,0.22-0.302,0.302c0.59-0.732,0.058-3.987-0.345-4.83
		c-0.425-0.889-1.822-1.369-2.501-1.941C12.467,12.22,12.467,12.177,12.467,12.133C12.789,12.064,12.467,12.177,12.467,12.133z"/>
	<path fill="#FEEC4F" d="M12.424,12.22c-0.007-0.05,0.009-0.077,0.043-0.086c0,0.043,0,0.086,0,0.129
		c0.679,0.572,2.076,1.052,2.501,1.941c0.403,0.843,0.937,4.098,0.345,4.83c-0.144,0.173-0.345,0.287-0.561,0.388
		c0.028-0.044,0.099-0.044,0.086-0.129c-0.195,0.092-0.251,0.324-0.518,0.345c0.059-0.32,0.259-0.564,0.259-0.819
		c0.09,0.01,0.012,0.188,0.086,0.215c-0.098-0.375,0.2-0.94,0.129-1.466c-0.156,0.027,0.117,0.218-0.086,0.173
		c-0.178-0.041,0.046-0.216-0.086-0.302c-0.176-0.013-0.023,0.09-0.043,0.173c-0.086-0.144-0.264-0.197-0.302-0.389
		c0.034,0.023,0.07,0.044,0.129,0.043c-0.001-0.179-0.168-0.194-0.302-0.13c-0.031-0.116,0.086-0.085,0.086-0.172
		c-0.139-0.053-0.033,0.14-0.172,0.086c-0.002-0.161,0.145-0.171,0.086-0.388c-0.367-0.053-0.726-0.139-1.078-0.259
		c-0.201-0.774-0.604-1.984-0.475-3.062c0.127,0.083,0.183,0.106,0.173-0.129c-0.099-0.104-0.153-0.052-0.302-0.043
		c0-0.244,0-0.488,0-0.732c0.068,0.018,0.036,0.136,0.172,0.086c0.014-0.114-0.089-0.111-0.172-0.129
		C12.424,12.335,12.424,12.278,12.424,12.22C12.417,12.17,12.424,12.278,12.424,12.22z"/>
	<path fill="#FFEC33" d="M15.615,18.731c-0.318,0.529-0.925,0.772-1.423,1.121c0.05-0.704,0.645-1.308,0.518-1.94
		c-0.036-0.182-0.329-0.463-0.474-0.604c-0.376-0.361-0.988-0.704-1.38-0.992c-0.192-1.289-0.644-2.678-0.431-4.097
		c0,0.058,0,0.115,0,0.173c0.083,0.018,0.186,0.015,0.172,0.129c-0.136,0.05-0.104-0.068-0.172-0.086c0,0.245,0,0.488,0,0.732
		c0.149-0.009,0.204-0.061,0.302,0.043c0.009,0.236-0.046,0.212-0.173,0.129c-0.129,1.078,0.274,2.288,0.475,3.062
		c0.352,0.12,0.711,0.206,1.078,0.259c0.059,0.217-0.088,0.228-0.086,0.388c0.139,0.054,0.033-0.14,0.172-0.086
		c0,0.086-0.117,0.056-0.086,0.172c0.134-0.064,0.301-0.049,0.302,0.13c-0.059,0.001-0.095-0.02-0.129-0.043
		c0.038,0.191,0.216,0.244,0.302,0.389c0.02-0.083-0.133-0.187,0.043-0.173c0.132,0.086-0.092,0.262,0.086,0.301
		c0.203,0.046-0.07-0.145,0.086-0.172c0.071,0.526-0.227,1.091-0.129,1.466c-0.074-0.027,0.004-0.206-0.086-0.216
		c0,0.256-0.2,0.5-0.259,0.82c0.267-0.021,0.322-0.253,0.518-0.345c0.012,0.084-0.058,0.085-0.086,0.129
		C15.083,19.243,15.37,19.013,15.615,18.731C15.296,19.261,15.508,18.826,15.615,18.731z"/>
	<path fill="#FFEC33" d="M21.091,15.713c0.948,0.503,2.131,0.772,2.674,1.682c-0.45-0.599-1.162-0.936-1.896-1.251
		c0.732,0.462,1.229,0.837,1.163,2.07c-0.047,0.883-0.433,2.497-0.733,2.932c-0.702-0.088-1.117-0.556-1.595-1.078
		c-0.498-0.543-0.855-1.034-0.647-1.681C20.433,17.508,20.777,16.616,21.091,15.713C22.039,16.216,21.19,16.149,21.091,15.713z"/>
	<path fill="#FEEC4F" d="M14.148,19.034c-0.006-0.676-0.874-1.756-1.379-1.769c-0.684-0.018-4.502,2.565-4.615,2.717
		c-0.007,0.009,0.006,0.032,0,0.043c-0.138-0.019-0.233-0.083-0.388-0.087c0.135-0.298,0.652-0.58,0.991-0.818
		c-0.048,0.153-0.397,0.232-0.345,0.344c1.434-0.932,2.915-1.779,4.442-2.544C13.43,16.937,14.484,18.095,14.148,19.034
		C14.142,18.358,14.484,18.095,14.148,19.034z"/>
	<path fill="#FFBC0F" d="M13.458,20.932c-1.814,0.056-3.583-0.246-5.304-0.907c0.006-0.01-0.007-0.034,0-0.043
		c0.112-0.151,3.932-2.735,4.615-2.717c0.505,0.013,1.373,1.093,1.379,1.769C13.952,19.699,13.773,20.383,13.458,20.932
		C13.19,21.385,13.773,20.383,13.458,20.932z"/>
	<path fill="#FFEE01" d="M14.795,22.396c-0.41-1.103,0.94-2.274,1.854-1.509C16.304,21.637,15.699,22.348,14.795,22.396z"/>
	<path fill="#E7A604" d="M17.253,22.353c-0.446,0.366-1.48,0.351-2.242,0.261c-0.104,0.018-0.094-0.08-0.216-0.045
		c-0.678-0.506,0.369-2.04,1.165-2.112C16.832,20.375,17.977,21.555,17.253,22.353C16.807,22.719,17.977,21.555,17.253,22.353z
		 M16.649,20.888c-0.914-0.766-2.264,0.406-1.854,1.509C15.699,22.348,16.304,21.637,16.649,20.888z"/>
	<path fill="#F7CF03" d="M23.98,14.419c0.164,0.483,0.365,0.93,0.519,1.423c-0.019,0.816-0.141,1.528-0.519,1.984
		c-0.079-1.272-1.254-1.449-2.026-2.027c0.641-0.423,1.225-0.904,1.811-1.38c0.125-0.052,0.197,0.259,0.216,0.043
		C23.98,14.448,23.98,14.433,23.98,14.419C24.145,14.902,23.98,14.433,23.98,14.419z"/>
	<path fill="#FFE305" d="M16.692,17.265c-0.191-0.023-0.397-0.033-0.517-0.13c-0.079-0.64-0.077-1.36-0.173-1.983
		c0.044,0,0.052,0.035,0.087,0.043c1.119-2.589,2.919-4.498,4.786-6.339c0.173,0,0.26,0.086,0.433,0.086
		c0.438,0.156,0.999,0.359,1.207,0.69c0.671,1.073-0.23,3.116-0.389,4.226c-1.171,1.009-2.379,1.972-3.623,2.889
		C17.958,17.021,17.315,17.007,16.692,17.265C16.501,17.242,17.315,17.007,16.692,17.265z"/>
	<path fill="#FFEE01" d="M9.319,11.573c0.373-0.002,0.784-0.144,1.078-0.086c-0.174,2.116,0.216,4.039,0.518,5.822
		c-0.847,0.721-1.739,1.382-2.674,1.983C8.497,16.787,8.87,14.029,9.319,11.573C9.691,11.571,8.87,14.029,9.319,11.573z"/>
	<path fill="#FFBC0F" d="M18.115,17.222c0.237,0.078,0.341-0.205,0.432-0.129c0.135,1.375,0.685,2.333,1.078,3.449
		c0.674,0.071,0.945,1.002,1.553,1.251c0.384,0.159,0.899,0.128,1.207,0.086c0.661-0.091,0.908-0.636,1.337-0.947
		c0.009,0.081-0.049,0.095-0.043,0.172c-0.349,0.556-0.594,1.217-1.294,1.424c-0.889,0.036-2.736-0.086-3.622-0.563
		c-0.61-1.205-0.969-2.484-1.077-3.837c0.072-0.372,0.511-0.624,0.474-0.863c-0.029,0-0.058,0-0.086,0
		C18.075,17.239,18.08,17.214,18.115,17.222C18.353,17.3,18.08,17.214,18.115,17.222z"/>
	<path fill="#CB6B03" d="M18.073,20.327c-0.92-0.244-1.766-0.563-2.674-0.818c0.152-0.384,0.701-0.734,0.949-1.166
		c0.416,0.188,0.959,0.25,1.338,0.475C17.762,19.374,17.952,19.816,18.073,20.327C17.153,20.083,17.952,19.816,18.073,20.327z"/>
</g>
</svg>
