<?xml version="1.0" encoding="utf-8"?>
<!-- Generator: Adobe Illustrator 15.1.0, SVG Export Plug-In . SVG Version: 6.00 Build 0)  -->
<!DOCTYPE svg PUBLIC "-//W3C//DTD SVG 1.1 Tiny//EN" "http://www.w3.org/Graphics/SVG/1.1/DTD/svg11-tiny.dtd">
<svg version="1.1" baseProfile="tiny" id="Layer_1" xmlns="http://www.w3.org/2000/svg" xmlns:xlink="http://www.w3.org/1999/xlink"
	 x="0px" y="0px" width="32px" height="40px" viewBox="0 0 32 40" xml:space="preserve">
<g id="Shape">
	<path fill="#724616" d="M16,39.65C14.344,38.188,0.707,25.773,0.707,14.004c0-7.576,6.861-13.739,15.294-13.739
		c8.433,0,15.292,6.163,15.292,13.739C31.293,25.67,17.652,38.18,16,39.65z"/>
	<path fill="#FFFFFF" d="M16.001,0.516c8.294,0,15.042,6.051,15.042,13.489c0,11.236-12.822,23.306-15.043,25.312
		C13.776,37.324,0.957,25.34,0.957,14.004C0.957,6.567,7.706,0.516,16.001,0.516 M16.001,0.016c-8.585,0-15.544,6.263-15.544,13.989
		c0,12.729,15.544,25.979,15.544,25.979s15.542-13.363,15.542-25.979C31.543,6.278,24.585,0.016,16.001,0.016L16.001,0.016z"/>
</g>
<circle id="Oval" fill="#FFFFFF" cx="16.001" cy="15.559" r="11.647"/>
<g>
	<path fill="#F9DCB2" d="M21.43,22.896l-0.212-2.576l-0.108-1.312l-0.008-0.086c-0.574,0.061-7.006-3.361-6.621-3.885
		c-0.688-0.016-1.352-0.055-1.977-0.122l-0.006,0.127l-0.12,1.471l-0.345,4.175c-0.013,0.12-0.02,0.239-0.02,0.357
		c0,1.726,1.401,3.165,3.171,3.165c0.731,0,1.399-0.246,1.932-0.657c0.192,0.997,1.07,1.768,2.144,1.768
		C20.562,25.321,21.574,24.189,21.43,22.896z"/>
	<g>
		<path fill="#DDBB8E" d="M13.491,21.046c0-0.118,0.007-0.237,0.021-0.357l0.335-4.062c0.003,0,0.006,0,0.009,0
			c0.017-0.513,2.409-0.6,2.794-1.124c-0.169-0.004-2.186-1.068-2.351-1.075c0,0-0.357-0.061-0.471-0.067
			c-0.024-0.001-1.209-0.09-1.324,0.554l-0.006,0.127l-0.121,1.471l-0.344,4.175c-0.013,0.12-0.02,0.239-0.02,0.357
			c0,1.725,1.401,3.165,3.17,3.165c0.256,0,0.503-0.03,0.74-0.087C14.519,23.79,13.491,22.522,13.491,21.046z"/>
		<path fill="#DDBB8E" d="M18.572,20.41c0.225,0.008,0.455,0.011,0.688,0.011c0.647,0,1.268-0.028,1.842-0.088
			c0.038-0.005,0.078-0.01,0.116-0.014l-0.108-1.312l-0.008-0.086c-0.331-0.553-1.608-1.112-1.608-1.112
			c-0.218-0.007-1.545,0.425-2.074,1.112l-0.008,0.086l-0.107,1.312l-0.213,2.576c-0.01,0.083-0.014,0.166-0.014,0.246
			c0,0.142,0.014,0.278,0.039,0.412c0.192,0.997,1.07,1.768,2.144,1.768c0.224,0,0.438-0.034,0.638-0.095
			c-0.769-0.234-1.352-0.882-1.505-1.673c-0.025-0.134-0.039-0.271-0.039-0.412c0-0.081,0.004-0.163,0.014-0.246L18.572,20.41z"/>
	</g>
	<path fill="#B27214" d="M22.193,13.477c0.538-0.473,0.841-1.069,0.841-1.809c0-2.518-3.515-5.74-7.851-5.74
		c-4.335,0-7.85,3.223-7.85,5.74c0,1.971,2.153,2.924,5.17,3.247c0.625,0.066,1.288,0.106,1.977,0.122
		c-0.399,0.543-0.625,1.119-0.625,1.648c0,1.358,1.485,2.016,3.563,2.236c0.575,0.061,1.195,0.089,1.841,0.089
		c0.647,0,1.268-0.028,1.842-0.089c2.079-0.22,3.564-0.878,3.564-2.236C24.666,15.58,23.682,14.275,22.193,13.477z"/>
	<path fill="#995C0D" d="M15.803,16.685c0-0.53,0.227-1.105,0.626-1.648c0.761-1.037,2.152-1.957,3.806-2.225
		c-0.315-0.051-0.642-0.08-0.975-0.08c-1.979,0-3.708,0.976-4.65,2.138c0,0,0,0,0.001,0c-2.815-0.36-4.791-1.314-4.791-3.202
		c0-2.272,2.863-5.118,6.607-5.651c-0.405-0.058-0.819-0.089-1.243-0.089c-4.335,0-7.85,3.223-7.85,5.74
		c0,1.971,2.153,2.924,5.17,3.247c0.625,0.066,1.288,0.106,1.977,0.122c0.022-0.03,0.046-0.06,0.068-0.09
		c-0.022,0.03-0.046,0.06-0.067,0.09c-0.4,0.543-0.626,1.119-0.626,1.648c0,1.358,1.485,2.016,3.563,2.236
		c0.575,0.061,1.195,0.089,1.841,0.089c0.333,0,0.659-0.009,0.975-0.023c-0.299-0.015-0.588-0.037-0.866-0.066
		C17.289,18.701,15.803,18.043,15.803,16.685z"/>
</g>
</svg>
