<?xml version="1.0" encoding="utf-8"?>
<!-- Generator: Adobe Illustrator 15.1.0, SVG Export Plug-In . SVG Version: 6.00 Build 0)  -->
<!DOCTYPE svg PUBLIC "-//W3C//DTD SVG 1.1//EN" "http://www.w3.org/Graphics/SVG/1.1/DTD/svg11.dtd">
<svg version="1.1" id="Layer_1" xmlns="http://www.w3.org/2000/svg" xmlns:xlink="http://www.w3.org/1999/xlink" x="0px" y="0px"
	 width="32px" height="40px" viewBox="0 0 32 40" enable-background="new 0 0 32 40" xml:space="preserve">
<g id="Shape">
	<path fill="#31A850" d="M16,39.65C14.344,38.188,0.707,25.773,0.707,14.004c0-7.576,6.861-13.739,15.294-13.739
		c8.433,0,15.292,6.163,15.292,13.739C31.293,25.67,17.652,38.18,16,39.65z"/>
	<path fill="#FFFFFF" d="M16.001,0.516c8.294,0,15.042,6.051,15.042,13.489c0,11.236-12.822,23.306-15.043,25.312
		C13.776,37.324,0.957,25.34,0.957,14.004C0.957,6.567,7.706,0.516,16.001,0.516 M16.001,0.016c-8.585,0-15.544,6.263-15.544,13.989
		c0,12.729,15.544,25.979,15.544,25.979s15.542-13.363,15.542-25.979C31.543,6.278,24.585,0.016,16.001,0.016L16.001,0.016z"/>
</g>
<circle id="Oval" fill="#FFFFFF" cx="16.001" cy="15.559" r="11.647"/>
<g>
	<path fill-rule="evenodd" clip-rule="evenodd" fill="#FAC71D" d="M18.167,10.618c-0.005-0.213-0.058,0.087-0.125,0.092
		c-1.219,0.985-4.756,1.025-5.788-0.154C12.156,9.99,12.862,9.742,13.4,9.597c1.081-0.293,2.393-0.294,3.498-0.031
		C17.504,9.71,18.295,9.96,18.167,10.618z M13.369,9.844c-0.209,0.065-0.724,0.206-0.712,0.526c0.015,0.396,0.821,0.543,1.3,0.619
		c0.562,0.089,1.244,0.131,1.857,0.093c0.534-0.033,1.961-0.236,1.981-0.712c0.011-0.238-0.433-0.46-0.773-0.557
		c-0.7-0.199-1.784-0.216-2.538-0.154C14.048,9.694,13.772,9.719,13.369,9.844z"/>
	<path fill-rule="evenodd" clip-rule="evenodd" fill="#E7B719" d="M14.483,9.659c0.754-0.062,1.838-0.044,2.538,0.154
		c0.341,0.097,0.784,0.319,0.773,0.557c-0.02,0.477-1.447,0.679-1.981,0.712c-0.613,0.038-1.295-0.004-1.857-0.093
		c-0.479-0.076-1.285-0.223-1.3-0.619c-0.012-0.321,0.503-0.461,0.712-0.526C13.772,9.719,14.048,9.694,14.483,9.659z
		 M16.433,10.339c-0.162-0.354-0.937-0.536-1.269-0.248c-0.083,0.072-0.073,0.285-0.186,0.34c-0.124,0.061-0.3,0.051-0.341-0.124
		c0.062-0.083,0.222-0.067,0.31-0.124c-0.067-0.026-0.05-0.136-0.093-0.186c-0.248,0-0.495,0-0.743,0
		c-0.022,0.094,0.053,0.091,0.031,0.186c0.058,0.045,0.205,0,0.248,0.062c-0.13,0.045-0.222,0.129-0.433,0.093
		c-0.019,0.122,0.17,0.037,0.247,0.062c0.196,0.485,1.421,0.527,1.486-0.093c0.097-0.059,0.3-0.004,0.279,0.155
		c-0.035,0.078-0.138,0.089-0.249,0.093c-0.004,0.098,0.083,0.104,0.063,0.217c0.257,0,0.515,0,0.774,0
		c0.022-0.199-0.147-0.204-0.279-0.248c0.13-0.035,0.155-0.175,0.372-0.124C16.675,10.284,16.504,10.362,16.433,10.339z"/>
	<path fill-rule="evenodd" clip-rule="evenodd" fill="#FAC71D" d="M16.65,10.401c-0.217-0.051-0.242,0.089-0.372,0.124
		c0.132,0.043,0.302,0.049,0.279,0.248c-0.259,0-0.517,0-0.774,0c0.02-0.113-0.067-0.119-0.063-0.217
		c0.111-0.003,0.213-0.015,0.249-0.093c0.021-0.159-0.182-0.213-0.279-0.155c-0.065,0.62-1.29,0.578-1.486,0.093
		c-0.077-0.025-0.266,0.06-0.247-0.062c0.211,0.036,0.303-0.048,0.433-0.093c-0.042-0.061-0.189-0.017-0.248-0.062
		c0.022-0.095-0.053-0.092-0.031-0.186c0.248,0,0.495,0,0.743,0c0.043,0.05,0.026,0.16,0.093,0.186
		c-0.088,0.056-0.248,0.041-0.31,0.124c0.041,0.174,0.217,0.185,0.341,0.124c0.113-0.056,0.103-0.269,0.186-0.34
		c0.333-0.288,1.107-0.106,1.269,0.248C16.504,10.362,16.675,10.284,16.65,10.401z"/>
	<path fill-rule="evenodd" clip-rule="evenodd" fill="#FAC71D" d="M18.167,10.773c0.364,0.295,1.047,0.272,1.021,0.959
		c-0.466,0.682-1.738,0.876-2.91,0.897c-1.184,0.021-2.492-0.213-2.941-0.836c0.648,0.102,1.11,0.344,1.827,0.433
		c0.413,0.052,0.887,0.084,1.394,0.062c0.638-0.028,2.196-0.17,2.229-0.712c0.021-0.354-0.371-0.376-0.619-0.525
		C18.167,10.958,18.167,10.866,18.167,10.773z"/>
	<path fill-rule="evenodd" clip-rule="evenodd" fill="#FAC71D" d="M18.6,13.496c0.034,0.291-0.136,0.474-0.309,0.588
		c-1.236,0.813-4.546,0.68-5.448-0.217c1.375,0.651,4.176,0.639,5.354-0.186c0.014-0.205,0.108-0.308,0.062-0.496
		c0.078-0.109,0.272,0.175,0.341,0.279C18.6,13.476,18.6,13.486,18.6,13.496z"/>
	<path fill-rule="evenodd" clip-rule="evenodd" fill="#FAC71D" d="M13.369,14.828c0.085,0.038,0.157,0.09,0.278,0.092
		c-0.577,0.458,0.054,0.781,0.619,0.929c1.283,0.336,3.308,0.249,4.333-0.031c-1.361,0.774-4.574,0.829-5.571-0.31
		c0,0.175,0,0.351,0,0.526C12.91,15.523,13.024,14.978,13.369,14.828z"/>
	<path fill-rule="evenodd" clip-rule="evenodd" fill="#FAC71D" d="M12.347,12.846c-0.04-0.607,0.473-0.662,0.836-0.867
		c-0.025-0.021-0.084-0.048-0.093,0c-0.075-0.068,0.097-0.068,0.124,0c0.068-0.041,0.037-0.24-0.031-0.247
		c0.208,0.046,0.011,0.314,0.062,0.495c-0.432,0.076-0.697,0.454-0.31,0.743c0.516,0.386,1.719,0.458,2.755,0.403
		c0.97-0.051,1.84-0.25,2.445-0.403C17.003,14.019,13.333,14.034,12.347,12.846z"/>
	<path fill-rule="evenodd" clip-rule="evenodd" fill="#E7B719" d="M18.167,10.618c0,0.051,0,0.103,0,0.155c0,0.093,0,0.186,0,0.279
		c0.248,0.149,0.64,0.172,0.619,0.525c-0.032,0.542-1.591,0.684-2.229,0.712c-0.506,0.022-0.98-0.01-1.394-0.062
		c-0.717-0.089-1.178-0.331-1.827-0.433c0.449,0.623,1.757,0.857,2.941,0.836c1.172-0.021,2.444-0.216,2.91-0.897
		c0.021,0.205-0.055,0.509,0.062,0.619c-0.129-0.048-0.17,0.147-0.248,0.216c-0.192,0.17-0.49,0.245-0.743,0.402
		c0.007,0.273,0.32,0.237,0.341,0.496c-0.068-0.104-0.263-0.388-0.341-0.279c0.047,0.188-0.048,0.291-0.062,0.496
		c-1.179,0.824-3.98,0.836-5.354,0.186c0.902,0.896,4.212,1.03,5.448,0.217c0.173-0.114,0.343-0.298,0.309-0.588
		c0.063,0.062-0.006,0.253,0.124,0.248c-0.148-0.025-0.096,0.1-0.093,0.124c0.028,0.22,0.554,0.192,0.558,0.526
		c0.006,0.546-1.593,0.711-2.197,0.742c-0.786,0.042-1.885,0.117-2.601-0.03c1.473,0.558,4.357,0.586,5.201-0.557
		c0.117,0.705-0.252,0.924-0.619,1.145c-0.011,0-0.021,0-0.031,0c-0.017,0.202,0.019,0.352,0.031,0.526
		c-1.047,0.896-3.716,0.922-5.201,0.402c0.49,0.395,1.46,0.545,2.414,0.588c1.223,0.056,2.627-0.19,3.126-0.866
		c0.072,0.114,0.012,0.36,0.031,0.525c0,0.021,0,0.042,0,0.062c-0.094,0.205-0.307,0.292-0.465,0.433
		c-1.302,0.553-3.769,0.619-4.982-0.062c-0.042,0.009-0.026,0.078-0.032,0.124c-0.123-0.321-0.543-0.344-0.433-0.898
		c-0.101-0.199-0.378-0.22-0.402-0.495c0-0.175,0-0.351,0-0.526c0.997,1.139,4.209,1.083,5.571,0.31
		c-1.025,0.279-3.05,0.367-4.333,0.031c-0.565-0.148-1.196-0.471-0.619-0.929c-0.121-0.002-0.193-0.054-0.278-0.092
		c-0.312-0.06-0.416-0.327-0.712-0.403c0.158-0.042-0.036-0.348,0.031-0.588c-0.058-0.192-0.271-0.153-0.341-0.402
		c-0.049-0.177,0.092-0.472-0.062-0.526c0.014-0.027,0.027-0.056,0.062-0.062c0.986,1.188,4.656,1.173,5.789,0.124
		c-0.605,0.152-1.476,0.352-2.445,0.403c-1.036,0.055-2.239-0.017-2.755-0.403c-0.387-0.289-0.123-0.667,0.31-0.743
		c-0.051-0.18,0.146-0.448-0.062-0.495c-0.403-0.103-0.734-0.277-0.929-0.588c0-0.196,0-0.392,0-0.588
		c1.032,1.179,4.569,1.139,5.788,0.154C18.109,10.705,18.162,10.405,18.167,10.618z"/>
	<path fill-rule="evenodd" clip-rule="evenodd" fill="#41484A" d="M25.224,17.303c0.133,0.579,0.548,1.144,0.773,1.733
		c0.354-0.884,0.685-1.791,0.96-2.754c0.011,0.971,0.215,2.485-0.311,3.157c-1.369,1.754-5.938,2.548-9.037,2.693
		c-3.198,0.148-6.081-0.072-8.759-0.836c-1.455-0.415-2.827-0.999-3.498-1.857c-0.477-0.61-0.354-2.197-0.309-3.157
		c0.257,0.971,0.64,1.815,0.928,2.754c0.302-0.503,0.538-1.072,0.805-1.609c-0.093-0.051-0.133,0.217-0.248,0.247
		c0.12-0.189,0.256-0.363,0.372-0.557c0.327,0.653,0.563,1.396,0.835,2.104c0.317-0.312,0.511-0.748,0.774-1.114
		c0.334,0.387,0.635,0.85,0.99,1.331c0.062,0.083,0.308,0.431,0.341,0.434c0.09,0.008,0.519-0.467,0.588-0.526
		c0.228-0.196,0.411-0.401,0.619-0.433c0.019,0.065,0.065,0.1,0.093,0.155c-0.073-0.029,0.087,0.302,0.124,0.371
		c0.238,0.455,0.553,0.978,0.805,1.425c0.56-0.565,1.083-1.166,1.671-1.703c0.302,0.688,0.647,1.333,0.959,2.012
		c0.237-0.424,0.921-1.248,1.145-1.764c0.081-0.186,0.063-0.088-0.061,0.031c-0.165,0.157-0.374,0.358-0.527,0.495
		c0.218-0.277,0.519-0.472,0.712-0.773c0.353,0.266,0.613,0.625,0.928,0.928c-0.266-0.218-0.477-0.493-0.743-0.711
		c0.333,0.637,0.772,1.168,1.115,1.795c0.293-0.497,0.622-1.175,0.897-1.764c0.011-0.023,0.117-0.193,0.03-0.154
		c0.017-0.025,0.032-0.05,0.031-0.093c0.31,0.074,0.582,0.335,0.866,0.526c0.29,0.194,0.579,0.385,0.836,0.588
		c0.378-0.438,0.704-0.926,1.053-1.393c0.43,0.292,0.783,0.661,1.176,0.991c0.488-0.554,0.853-1.231,1.362-1.764
		c0.204,0.414,0.486,0.751,0.711,1.146c0.301-0.691,0.562-1.419,0.836-2.136C25.15,17.148,25.171,17.243,25.224,17.303z"/>
	<path fill-rule="evenodd" clip-rule="evenodd" fill="#32393F" d="M12.286,12.908c0.154,0.054,0.013,0.35,0.062,0.526
		c0.069,0.249,0.283,0.209,0.341,0.402c-0.067,0.241,0.127,0.546-0.031,0.588c-2.94,0.351-5.698,0.884-7.304,2.569
		c0.214,0.467,0.461,0.901,0.65,1.393c0.219-0.194,0.344-0.482,0.526-0.712c0.115-0.03,0.155-0.298,0.248-0.247
		c-0.268,0.537-0.503,1.106-0.805,1.609c-0.289-0.939-0.671-1.784-0.928-2.754c0-0.403,0-0.805,0-1.207
		c0.242,0.274,0.4,0.631,0.65,0.897c0.174-0.507,0.322-1.04,0.464-1.578c0.24,0.234,0.329,0.62,0.526,0.897
		c0.168-0.481,0.299-1.001,0.464-1.486c0.246,0.24,0.447,0.522,0.712,0.743c0.385-0.522,0.755-1.061,1.114-1.609
		c0.237,0.33,0.464,0.67,0.681,1.021c0.486-0.535,0.932-1.112,1.393-1.672c0.142,0.047,0.286,0.279,0.464,0.496
		c0.119,0.144,0.371,0.523,0.434,0.526C12.083,13.318,12.146,12.995,12.286,12.908z"/>
	<path fill-rule="evenodd" clip-rule="evenodd" fill="#32393F" d="M19.25,12.352c0.244,0.333,0.541,0.614,0.774,0.959
		c0.344-0.316,0.579-0.741,0.928-1.052c0.42,0.602,0.926,1.117,1.361,1.703c0.265-0.304,0.469-0.667,0.682-1.021
		c0.394,0.513,0.763,1.052,1.114,1.609c0.292-0.192,0.495-0.475,0.712-0.743c0.206,0.433,0.318,0.961,0.464,1.455
		c0.245-0.229,0.342-0.606,0.525-0.898c0.175,0.517,0.333,1.05,0.466,1.609c0.277-0.237,0.438-0.592,0.649-0.897
		c0.071,0.341,0.01,0.815,0.031,1.207c-0.275,0.963-0.606,1.871-0.96,2.754c-0.226-0.589-0.641-1.154-0.773-1.733
		c0.242,0.365,0.493,0.724,0.742,1.083c0.251-0.43,0.437-0.926,0.681-1.362c-0.958-1.19-2.979-1.864-4.889-2.259
		c-0.271-0.055-0.698-0.17-0.898-0.124c-0.223,0.052-0.583,0.486-0.773,0.65c-0.278,0.24-0.541,0.442-0.774,0.65
		c-0.121-0.074-0.179-0.213-0.34-0.248c0.367-0.221,0.736-0.44,0.619-1.145c0.012-0.455-0.453-0.676-0.867-0.805
		c-0.13,0.005-0.062-0.187-0.124-0.248c0-0.01,0-0.021,0-0.031c-0.021-0.258-0.334-0.223-0.341-0.496
		c0.253-0.157,0.551-0.231,0.743-0.402C19.08,12.499,19.121,12.304,19.25,12.352z"/>
	<path fill-rule="evenodd" clip-rule="evenodd" fill="none" d="M19.312,15.941c0.233-0.208,0.496-0.41,0.774-0.65
		c0.19-0.164,0.551-0.598,0.773-0.65c0.2-0.047,0.628,0.068,0.898,0.124c1.91,0.395,3.931,1.069,4.889,2.259
		c-0.244,0.437-0.43,0.932-0.681,1.362c-0.249-0.359-0.5-0.718-0.742-1.083c-0.053-0.061-0.073-0.155-0.155-0.186
		c-0.274,0.717-0.535,1.445-0.836,2.136c-0.225-0.394-0.507-0.731-0.711-1.146c-0.51,0.533-0.874,1.21-1.362,1.764
		c-0.393-0.33-0.746-0.699-1.176-0.991c-0.349,0.467-0.675,0.956-1.053,1.393c-0.257-0.203-0.546-0.394-0.836-0.588
		c-0.284-0.191-0.557-0.453-0.866-0.526c0.001,0.043-0.015,0.068-0.031,0.093c-0.295,0.405-0.578,0.824-0.866,1.238
		c-0.192-0.086-0.289-0.268-0.434-0.403c-0.315-0.303-0.575-0.662-0.928-0.928c-0.194,0.302-0.495,0.496-0.712,0.773
		c-0.194,0.188-0.345,0.419-0.588,0.558c-0.056-0.13-0.166-0.207-0.217-0.34c0.69-0.682,1.467-1.277,2.198-1.919
		c0.918-0.114,1.937-0.126,2.228-0.867c0.158-0.141,0.371-0.229,0.465-0.433c0-0.021,0-0.042,0-0.062
		C19.399,16.616,19.397,16.155,19.312,15.941z"/>
	<path fill-rule="evenodd" clip-rule="evenodd" fill="#FAC71D" d="M18.724,13.744c0.414,0.129,0.879,0.35,0.867,0.805
		c-0.844,1.144-3.728,1.115-5.201,0.557c0.716,0.147,1.815,0.072,2.601,0.03c0.604-0.031,2.203-0.196,2.197-0.742
		c-0.004-0.334-0.529-0.307-0.558-0.526C18.628,13.844,18.575,13.719,18.724,13.744z"/>
	<path fill-rule="evenodd" clip-rule="evenodd" fill="#FAC71D" d="M18.972,15.694c0.161,0.035,0.219,0.174,0.34,0.248
		c0.086,0.214,0.088,0.675,0.031,0.928c-0.02-0.166,0.041-0.412-0.031-0.525c-0.499,0.676-1.903,0.922-3.126,0.866
		c-0.954-0.043-1.924-0.193-2.414-0.588c1.485,0.52,4.154,0.493,5.201-0.402c-0.013-0.174-0.048-0.324-0.031-0.526
		C18.951,15.694,18.961,15.694,18.972,15.694z"/>
	<path fill-rule="evenodd" clip-rule="evenodd" fill="#32393F" d="M13.864,17.427c0.006-0.046-0.01-0.115,0.032-0.124
		c1.214,0.68,3.681,0.614,4.982,0.062c-0.291,0.741-1.31,0.753-2.228,0.867c-0.731,0.642-1.508,1.238-2.198,1.919
		c0.051,0.134,0.161,0.21,0.217,0.34c0.243-0.138,0.394-0.37,0.588-0.558c0.153-0.137,0.362-0.338,0.527-0.495
		c0.125-0.119,0.142-0.216,0.061-0.031c-0.224,0.516-0.908,1.34-1.145,1.764c-0.312-0.679-0.657-1.324-0.959-2.012
		c-0.587,0.537-1.111,1.138-1.671,1.703c-0.252-0.447-0.567-0.97-0.805-1.425c-0.036-0.069-0.196-0.4-0.124-0.371
		c0.104,0.134,0.198,0.276,0.31,0.402c0.961-0.504,1.832-1.098,2.754-1.641C14.086,17.7,13.888,17.651,13.864,17.427z"/>
	<path fill-rule="evenodd" clip-rule="evenodd" fill="#32393F" d="M18.197,19.253c0.087-0.039-0.02,0.131-0.03,0.154
		c-0.275,0.589-0.604,1.267-0.897,1.764c-0.343-0.627-0.782-1.158-1.115-1.795c0.266,0.219,0.478,0.493,0.743,0.711
		c0.145,0.135,0.241,0.317,0.434,0.403C17.619,20.077,17.902,19.659,18.197,19.253z"/>
	<path fill-rule="evenodd" clip-rule="evenodd" fill="none" d="M6.529,17.674c-0.182,0.23-0.308,0.519-0.526,0.712
		c-0.189-0.492-0.436-0.926-0.65-1.393c1.606-1.685,4.364-2.219,7.304-2.569c0.296,0.076,0.4,0.343,0.712,0.403
		c-0.345,0.15-0.459,0.696-0.34,1.207c0.023,0.275,0.301,0.296,0.402,0.495c-0.11,0.554,0.311,0.577,0.433,0.898
		c0.024,0.224,0.223,0.272,0.34,0.402c-0.922,0.542-1.792,1.137-2.754,1.641c-0.111-0.126-0.206-0.269-0.31-0.402
		c-0.028-0.055-0.075-0.09-0.093-0.155c-0.208,0.032-0.391,0.237-0.619,0.433c-0.069,0.06-0.498,0.535-0.588,0.526
		c-0.033-0.003-0.279-0.35-0.341-0.434c-0.355-0.481-0.656-0.944-0.99-1.331c-0.263,0.367-0.457,0.802-0.774,1.114
		c-0.272-0.708-0.508-1.452-0.835-2.104C6.785,17.312,6.649,17.485,6.529,17.674z"/>
</g>
</svg>
