<?xml version="1.0" encoding="utf-8"?>
<!-- Generator: Adobe Illustrator 15.1.0, SVG Export Plug-In . SVG Version: 6.00 Build 0)  -->
<!DOCTYPE svg PUBLIC "-//W3C//DTD SVG 1.1 Tiny//EN" "http://www.w3.org/Graphics/SVG/1.1/DTD/svg11-tiny.dtd">
<svg version="1.1" baseProfile="tiny" id="Layer_1" xmlns="http://www.w3.org/2000/svg" xmlns:xlink="http://www.w3.org/1999/xlink"
	 x="0px" y="0px" width="32px" height="40px" viewBox="0 0 32 40" xml:space="preserve">
<circle fill="#FFFFFF" cx="16.001" cy="15.559" r="11.647"/>
<g>
	<path fill="#DAEF45" d="M16.001,0.265c-8.433,0-15.294,6.163-15.294,13.739c0,11.77,13.637,24.184,15.293,25.646
		c1.652-1.471,15.293-13.98,15.293-25.646C31.293,6.428,24.434,0.265,16.001,0.265z M16.001,27.206
		c-6.433,0-11.647-5.215-11.647-11.647c0-6.433,5.214-11.647,11.647-11.647c6.433,0,11.647,5.214,11.647,11.647
		C27.648,21.991,22.434,27.206,16.001,27.206z"/>
	<path fill="#FFFFFF" d="M16.001,0.516c8.294,0,15.042,6.051,15.042,13.489c0,11.236-12.822,23.306-15.043,25.312
		C13.776,37.324,0.957,25.34,0.957,14.004C0.957,6.567,7.706,0.516,16.001,0.516 M16.001,0.016c-8.585,0-15.544,6.263-15.544,13.989
		c0,12.729,15.544,25.979,15.544,25.979s15.542-13.363,15.542-25.979C31.543,6.278,24.585,0.016,16.001,0.016L16.001,0.016z"/>
</g>
<g>
	<path fill-rule="evenodd" fill="#3D3D3D" d="M19.952,9.782c-0.213,1.192-0.397,2.411-0.571,3.64
		c0.508-0.058,1.038-0.317,1.559-0.52c0.521-0.203,1.039-0.399,1.509-0.624c0.904,1.227,1.718,2.544,2.546,3.848
		c-1.51,2.856-2.972,5.763-4.366,8.734c-3.501,0-7.002,0-10.503,0c-1.011-2.108-2.051-4.188-3.119-6.239
		c0.699-1.138,1.441-2.233,2.184-3.328c0.929,0.318,1.79,0.705,2.704,1.04c-0.227-2.044-0.641-4.351-0.989-6.447
		c0.612-0.724,1.457-1.232,2.185-1.819c0.794-0.642,1.518-1.326,2.34-1.924C16.951,7.34,18.413,8.6,19.952,9.782z M15.429,7.183
		c-0.401,0.951-0.708,1.996-1.144,2.912c0.302,4.621,0.479,9.365,0.779,13.987c0.277,0,0.555,0,0.832,0c0-1.959,0-3.918,0-5.876
		c0.666-0.495,1.556-0.766,2.132-1.352c0.407-2.209,0.69-4.544,1.091-6.759C17.844,9.169,16.705,8.107,15.429,7.183z M12.102,9.886
		c0.429,0.056,0.915,0.055,1.351,0.104c0.212-0.621,0.621-1.32,0.729-1.872C13.502,8.722,12.741,9.244,12.102,9.886z M20.576,14.878
		c0.49,0.082,0.803,0.34,1.299,0.416c0.007-0.497,0.139-1.143,0-1.611C21.469,14.107,20.936,14.405,20.576,14.878z M22.76,15.657
		c-0.039,0.283-0.279,0.698-0.417,1.04c-0.999,2.522-2.001,4.927-2.91,7.384c0.19,0,0.381,0,0.571,0
		c1.389-2.614,2.729-5.278,4.055-7.955c-0.433-0.694-0.883-1.369-1.351-2.028C22.605,14.56,22.821,15.203,22.76,15.657z
		 M10.801,17.686c0.194,0.435,0.233,1.053,0.365,1.612c0.367,1.568,0.858,3.29,1.195,4.784c0.261-0.035,0.657,0.067,0.831-0.052
		c-0.41-2.207-0.739-4.495-1.091-6.76c-0.828-0.264-1.717-0.744-2.444-0.936C9.961,16.788,10.553,17.125,10.801,17.686z
		 M16.988,24.081c0.329,0,0.659,0,0.988,0c0.338-1.165,0.826-2.697,1.247-3.952c0.133-0.395,0.465-1.048,0.417-1.352
		c-0.032-0.195-0.512-0.644-0.729-0.883c-0.344-0.381-0.682-0.707-0.883-0.884C17.264,18.948,17.324,21.713,16.988,24.081z"/>
</g>
</svg>
