<?xml version="1.0" encoding="utf-8"?>
<!-- Generator: Adobe Illustrator 15.1.0, SVG Export Plug-In . SVG Version: 6.00 Build 0)  -->
<svg version="1.2" baseProfile="tiny" id="Layer_1" xmlns="http://www.w3.org/2000/svg" xmlns:xlink="http://www.w3.org/1999/xlink"
	 x="0px" y="0px" width="32px" height="40px" viewBox="0 0 32 40" xml:space="preserve">
<circle fill="#FFFFFF" cx="16.001" cy="15.559" r="11.647"/>
<g>
	<path fill="#5AC91F" d="M16.001,0.265c-8.433,0-15.294,6.163-15.294,13.739c0,11.77,13.637,24.184,15.293,25.646
		c1.652-1.471,15.293-13.98,15.293-25.646C31.293,6.428,24.434,0.265,16.001,0.265z M16.001,27.206
		c-6.433,0-11.647-5.215-11.647-11.647c0-6.433,5.214-11.647,11.647-11.647c6.433,0,11.647,5.214,11.647,11.647
		C27.648,21.991,22.434,27.206,16.001,27.206z"/>
	<path fill="#FFFFFF" d="M16.001,0.516c8.294,0,15.042,6.051,15.042,13.489c0,11.236-12.822,23.306-15.043,25.312
		C13.776,37.324,0.957,25.34,0.957,14.004C0.957,6.567,7.706,0.516,16.001,0.516 M16.001,0.016c-8.585,0-15.544,6.263-15.544,13.989
		c0,12.729,15.544,25.979,15.544,25.979s15.542-13.363,15.542-25.979C31.543,6.278,24.585,0.016,16.001,0.016L16.001,0.016z"/>
</g>
<g>
	<g>
		<path fill="#262626" d="M8.456,10.609L8.358,11.53l2.356,2.799l0.41-3.02c0.019-0.141,0.059-0.273,0.096-0.406L8.456,10.609z"/>
		<path fill="#262626" d="M10.461,16.202l0.123-0.911l-2.332-2.771l-0.345,3.234c-0.085,0.801,0.495,1.52,1.296,1.604l1.394,0.148
			C10.459,17.1,10.399,16.659,10.461,16.202z"/>
		<path fill="#262626" d="M15.305,10.721c-0.202-0.56-0.82-0.851-1.38-0.648c-0.561,0.202-0.851,0.82-0.648,1.38l1.309,3.623
			c0.119,0.33,0.39,0.582,0.728,0.673l3.392,0.934c0.096,0.026,0.191,0.038,0.285,0.038c0.473,0,0.908-0.313,1.039-0.792
			c0.158-0.575-0.18-1.167-0.754-1.326l-2.852-0.784L15.305,10.721z"/>
		<path fill="#262626" d="M18.855,22.496l-0.443-3.059c-0.053-0.353-0.25-0.668-0.547-0.866l-1.797-1.199l-0.632-0.423
			c0.003-0.017-1.329-1.079-1.527-1.627l-0.411-1.139l-2.208,1.25c0,0-0.088,0.65-0.118,0.866c-0.024,0.182-0.029,0.783,0.052,1.042
			c0.128,0.412,0.512,1.643,0.512,1.643l0.688,2.206l-0.962,3.656c-0.177,0.672,0.225,1.359,0.896,1.535
			c0.108,0.029,0.215,0.043,0.321,0.043c0.558,0,1.067-0.375,1.215-0.938l1.054-4.006c0.06-0.229,0.055-0.469-0.016-0.695
			l-0.451-1.448l1.521,1.016l0.363,2.504c0.091,0.627,0.628,1.078,1.244,1.076c0.061,0,0.121-0.004,0.182-0.012
			C18.479,23.822,18.955,23.184,18.855,22.496z"/>
		<path fill="#262626" d="M26.934,14.624c-0.316-0.239-0.77-0.175-1.006,0.142l-2.699,3.585c-0.053,0.071-0.094,0.151-0.119,0.237
			L22,22.518l-1.705,0.244c-0.088,0.012-0.174,0.041-0.252,0.086l-4.934,2.787c-0.346,0.195-0.468,0.633-0.272,0.979
			c0.131,0.234,0.375,0.365,0.626,0.365c0.12,0,0.241-0.029,0.353-0.092l4.817-2.721l2.033-0.291
			c0.281-0.039,0.514-0.242,0.59-0.516l1.201-4.25l2.617-3.478C27.314,15.313,27.25,14.863,26.934,14.624z"/>
		<path fill="#262626" d="M8.751,10.231l2.616,0.279l0.332,0.035c0.163,0.018,0.324,0.001,0.481-0.034
			c-0.174,0.262-0.298,0.563-0.344,0.895l-0.424,3.132l1.838-1.041l-0.65-1.799c-0.174-0.482-0.125-0.988,0.086-1.414
			c0.028-0.019,0.058-0.033,0.084-0.054c0.182-0.147,0.318-0.337,0.411-0.547c0.061-0.138,0.107-0.282,0.123-0.435
			c0.013-0.117,0.007-0.23-0.007-0.342c-0.084-0.654-0.604-1.191-1.289-1.264L9.06,7.329c-0.384-0.041-0.77,0.072-1.07,0.315
			C7.688,7.887,7.496,8.24,7.455,8.625C7.37,9.427,7.95,10.146,8.751,10.231z"/>
	</g>
	<circle fill="#262626" cx="15.328" cy="7.342" r="2.095"/>
</g>
</svg>
