<?xml version="1.0" encoding="utf-8"?>
<!-- Generator: Adobe Illustrator 15.1.0, SVG Export Plug-In . SVG Version: 6.00 Build 0)  -->
<!DOCTYPE svg PUBLIC "-//W3C//DTD SVG 1.1//EN" "http://www.w3.org/Graphics/SVG/1.1/DTD/svg11.dtd">
<svg version="1.1" id="Layer_1" xmlns="http://www.w3.org/2000/svg" xmlns:xlink="http://www.w3.org/1999/xlink" x="0px" y="0px"
	 width="32px" height="40px" viewBox="0 0 32 40" enable-background="new 0 0 32 40" xml:space="preserve">
<g id="Shape">
	<path fill="#3A3A3A" d="M16,39.65C14.344,38.188,0.707,25.773,0.707,14.004c0-7.576,6.861-13.739,15.294-13.739
		c8.433,0,15.292,6.163,15.292,13.739C31.293,25.67,17.652,38.18,16,39.65z"/>
	<path fill="#FFFFFF" d="M16.001,0.516c8.294,0,15.042,6.051,15.042,13.489c0,11.236-12.822,23.306-15.043,25.312
		C13.776,37.324,0.957,25.34,0.957,14.004C0.957,6.567,7.706,0.516,16.001,0.516 M16.001,0.016c-8.585,0-15.544,6.263-15.544,13.989
		c0,12.729,15.544,25.979,15.544,25.979s15.542-13.363,15.542-25.979C31.543,6.278,24.585,0.016,16.001,0.016L16.001,0.016z"/>
</g>
<g>
	<rect x="6.375" y="5.87" fill="#FFFFFF" width="19.25" height="19.25"/>
	<g>
		<path d="M8.843,19.693v-8.637h1.793v3.293h3.357v-3.293h1.793v8.637h-1.793v-3.855h-3.357v3.855H8.843z"/>
		<path d="M20.546,13.301c0.404,0.168,0.732,0.477,0.982,0.926v-0.92h1.629v6.059c0,0.824-0.139,1.445-0.416,1.863
			c-0.477,0.719-1.391,1.078-2.742,1.078c-0.816,0-1.482-0.16-1.998-0.48s-0.801-0.799-0.855-1.436h1.816
			c0.047,0.195,0.123,0.336,0.229,0.422c0.18,0.152,0.482,0.229,0.908,0.229c0.602,0,1.004-0.201,1.207-0.604
			c0.133-0.258,0.199-0.691,0.199-1.301v-0.41c-0.16,0.273-0.332,0.479-0.516,0.615c-0.332,0.254-0.764,0.381-1.295,0.381
			c-0.82,0-1.476-0.288-1.966-0.864s-0.735-1.356-0.735-2.341c0-0.949,0.236-1.747,0.708-2.394s1.142-0.97,2.007-0.97
			C20.028,13.154,20.308,13.203,20.546,13.301z M21.114,17.88c0.268-0.295,0.402-0.765,0.402-1.409c0-0.605-0.127-1.066-0.383-1.383
			c-0.254-0.316-0.596-0.475-1.023-0.475c-0.584,0-0.986,0.275-1.208,0.826c-0.116,0.293-0.175,0.654-0.175,1.084
			c0,0.371,0.063,0.701,0.187,0.99c0.226,0.539,0.63,0.809,1.214,0.809C20.517,18.322,20.846,18.175,21.114,17.88z"/>
	</g>
</g>
</svg>
