<?xml version="1.0" encoding="utf-8"?>
<!-- Generator: Adobe Illustrator 15.1.0, SVG Export Plug-In . SVG Version: 6.00 Build 0)  -->
<!DOCTYPE svg PUBLIC "-//W3C//DTD SVG 1.1 Tiny//EN" "http://www.w3.org/Graphics/SVG/1.1/DTD/svg11-tiny.dtd">
<svg version="1.1" baseProfile="tiny" id="Layer_1" xmlns="http://www.w3.org/2000/svg" xmlns:xlink="http://www.w3.org/1999/xlink"
	 x="0px" y="0px" width="32px" height="40px" viewBox="0 0 32 40" xml:space="preserve">
<circle fill="#FFFFFF" cx="16.001" cy="15.559" r="11.647"/>
<g>
	<path fill="#DAEF45" d="M16.001,0.265c-8.433,0-15.294,6.163-15.294,13.739c0,11.77,13.637,24.184,15.293,25.646
		c1.652-1.471,15.293-13.98,15.293-25.646C31.293,6.428,24.434,0.265,16.001,0.265z M16.001,27.206
		c-6.433,0-11.647-5.215-11.647-11.647c0-6.433,5.214-11.647,11.647-11.647c6.433,0,11.647,5.214,11.647,11.647
		C27.648,21.991,22.434,27.206,16.001,27.206z"/>
	<path fill="#FFFFFF" d="M16.001,0.516c8.294,0,15.042,6.051,15.042,13.489c0,11.236-12.822,23.306-15.043,25.312
		C13.776,37.324,0.957,25.34,0.957,14.004C0.957,6.567,7.706,0.516,16.001,0.516 M16.001,0.016c-8.585,0-15.544,6.263-15.544,13.989
		c0,12.729,15.544,25.979,15.544,25.979s15.542-13.363,15.542-25.979C31.543,6.278,24.585,0.016,16.001,0.016L16.001,0.016z"/>
</g>
<g>
	<path fill-rule="evenodd" fill="#3D3D3D" d="M22.412,9.922c-1.333,1.43-2.716,2.812-4.146,4.146
		c-0.522-0.45-1.215-0.73-1.996-0.921c0.025-1.778-0.051-3.659,0.039-5.374C18.966,7.867,20.792,8.791,22.412,9.922z"/>
	<path fill-rule="evenodd" fill="#3D3D3D" d="M15.004,7.811c0.203,0.011,0.114,0.379,0.115,0.576c0.008,1.469-0.006,3.174,0,4.683
		c-0.565,0.049-1.031,0.197-1.458,0.384c-0.187-0.029-0.333-0.218-0.461-0.345c-0.983-0.983-2.037-2.093-3.071-3.071
		C11.351,8.893,12.935,8.109,15.004,7.811z"/>
	<path fill-rule="evenodd" fill="#3D3D3D" d="M26.827,18.021c0,0.46,0,0.921,0,1.382c-2.234-0.338-4.461-0.684-6.603-1.113
		c0.076-1.574-0.427-2.568-1.075-3.417c1.027-1.042,2.039-2.078,3.109-3.148c0.104-0.104,0.979-1.04,1.074-1.036
		c0.077,0.003,0.506,0.532,0.653,0.691C25.534,13.046,26.572,15.194,26.827,18.021z"/>
	<path fill-rule="evenodd" fill="#3D3D3D" d="M7.173,15.795c0-0.013,0-0.026,0-0.039c0.294-2.06,1.007-3.702,2.149-4.914
		c1.129,1.098,2.243,2.21,3.34,3.34c-0.517,0.392-0.8,1.017-1.113,1.612C10.091,15.795,8.632,15.795,7.173,15.795z"/>
	<path fill-rule="evenodd" fill="#3D3D3D" d="M19.073,18.137c-0.523-0.091-1.061-0.168-1.574-0.269
		c0.037-1.405-0.848-2.548-2.227-2.61c-0.691-0.031-1.561,0.275-1.574,0.844c-0.007,0.317,0.242,0.54,0.461,0.576
		c0.384,0.063,0.535-0.233,0.883-0.269c0.806-0.084,1.25,0.606,1.305,1.037c0.134,1.052-0.761,1.945-1.958,1.804
		c-1.049-0.123-1.798-1.012-1.881-1.996c-0.138-1.649,1.223-2.992,2.726-3.071c1.136-0.06,2.103,0.477,2.764,1.151
		C18.634,15.983,19.112,16.7,19.073,18.137z"/>
	<path fill-rule="evenodd" fill="#3D3D3D" d="M7.173,16.947c1.408,0,2.815,0,4.222,0c-0.032,0.992,0.301,1.619,0.691,2.188
		c-0.898,0.905-1.762,1.846-2.725,2.688C8.24,20.666,7.4,19.228,7.173,17.177C7.173,17.1,7.173,17.023,7.173,16.947z"/>
	<path fill-rule="evenodd" fill="#3D3D3D" d="M20.032,19.442c-0.47,1.693-1.504,2.821-2.84,3.646
		c-0.168-0.229-0.161-0.529-0.23-0.806c-0.182-0.722-0.434-1.581-0.614-2.38c0.265-0.312,0.597-0.555,0.806-0.921
		C18.128,19.12,19.049,19.313,20.032,19.442z"/>
	<path fill-rule="evenodd" fill="#3D3D3D" d="M15.272,20.325c0.269,1.075,0.538,2.15,0.806,3.224
		c-2.05,0.676-4.488-0.023-5.758-0.959c0.829-0.95,1.756-1.801,2.649-2.688C13.533,20.23,14.395,20.552,15.272,20.325z"/>
</g>
</svg>
