<?xml version="1.0" encoding="utf-8"?>
<!-- Generator: Adobe Illustrator 15.1.0, SVG Export Plug-In . SVG Version: 6.00 Build 0)  -->
<!DOCTYPE svg PUBLIC "-//W3C//DTD SVG 1.1 Tiny//EN" "http://www.w3.org/Graphics/SVG/1.1/DTD/svg11-tiny.dtd">
<svg version="1.1" baseProfile="tiny" id="Layer_1" xmlns="http://www.w3.org/2000/svg" xmlns:xlink="http://www.w3.org/1999/xlink"
	 x="0px" y="0px" width="32px" height="40px" viewBox="0 0 32 40" xml:space="preserve">
<circle fill="#FFFFFF" cx="16.001" cy="15.559" r="11.647"/>
<g id="XMLID_2_">
	<path d="M6.982,11.868c0.059-0.059,0.102-0.145,0.19-0.191c0.237-0.123,0.618-0.045,0.763,0.12
		c0.015,0.018,0.017,0.045,0.023,0.071C7.633,11.868,7.308,11.868,6.982,11.868z"/>
	<path d="M24.064,11.797c0.223-0.253,0.805-0.222,0.963,0.071c-0.332,0-0.666,0-0.998,0C24.047,11.849,24.059,11.826,24.064,11.797z
		"/>
	<g>
		<path d="M26.014,16.498c-0.166,0.117-0.734,0.063-1.004,0.04c-1.018-0.089-1.861-0.255-2.572-0.563
			c-1.102-0.478-2.135-0.659-3.273-0.884c0.039,0.155,0.111,0.303,0.18,0.442c0.498,1.008,1.004,2.078,1.488,3.134
			c0.273,0.6,0.559,1.204,0.822,1.828c0.129,0.304,0.266,0.626,0.383,0.943c0.121,0.329,0.234,0.67,0.279,1.024
			c0.129,0.021,0.244-0.026,0.342,0c0.119,0.033,0.176,0.176,0.262,0.262c0.098,0.097,0.256,0.145,0.221,0.281
			c-0.145,0.146-0.402,0.101-0.643,0.101c-0.459,0-0.967,0-1.445,0c-0.23,0-0.494,0.059-0.623-0.101
			c0.09-0.252,0.324-0.359,0.482-0.543c0.094,0,0.188,0,0.281,0c-0.17-0.929-0.51-1.86-0.885-2.651
			c-0.006-0.043-0.066-0.14-0.18-0.341c-0.723-1.234-1.705-2.208-2.451-3.416c-0.275,0.252-1.107,0.221-1.688,0.221
			c-0.218,0-0.45-0.014-0.662-0.02c-0.445-0.013-0.782,0.024-0.985-0.201c-0.621,0.927-1.347,1.777-2.009,2.692
			c-0.032,0.044-0.059,0.093-0.1,0.141c-0.185,0.213-0.336,0.554-0.482,0.844c-0.14,0.278-0.285,0.55-0.402,0.843
			c-0.234,0.583-0.408,1.226-0.563,1.888c0.328-0.072,0.413,0.113,0.563,0.262c0.097,0.097,0.245,0.173,0.201,0.281
			c-0.045,0.144-0.245,0.1-0.381,0.101c-0.476,0.005-1.17,0.026-1.567-0.041c-0.189,0.047-0.643,0.105-0.744-0.06
			c0.002-0.165,0.123-0.212,0.221-0.281c0.059-0.108,0.151-0.184,0.241-0.262c0.114,0,0.228,0,0.342,0
			c0.338-1.339,0.952-2.543,1.486-3.756c0.537-1.218,1.139-2.392,1.688-3.596c-0.834,0.103-1.608,0.304-2.37,0.542
			c-0.329,0.103-0.639,0.19-0.944,0.321c-0.202,0.087-0.388,0.179-0.603,0.241C8.286,16.4,7.578,16.52,6.77,16.558
			c-0.241,0.012-0.591,0.058-0.764-0.04c-0.158-0.089-0.209-0.438-0.201-0.723c0.014-0.472,0.139-0.916,0.442-1.044
			c0.257-0.109,0.677-0.107,1.085-0.141c0.396-0.032,0.821-0.046,1.145-0.081c2.576-0.274,4.153-1.755,6.83-2.009
			c1.92-0.181,3.439,0.414,4.762,0.964c1.088,0.454,2.16,0.895,3.414,1.044c0.438,0.052,1.236,0.044,1.809,0.121
			c0.684,0.092,0.82,0.349,0.883,1.044C26.201,15.992,26.182,16.377,26.014,16.498z"/>
		<path d="M13.238,12.199c-0.021,0.142-0.192,0.107-0.281,0.121c-0.663,0.101-1.406,0.16-2.129,0.241
			c-0.113,0.012-0.214,0.052-0.322,0.06c-0.806,0.059-1.636-0.119-2.431-0.121C8,12.519,8.032,12.645,7.975,12.681
			c-0.012,0.075-0.092,0.081-0.101,0.161c0.763-0.093,0.43,0.909,0.502,1.506c-0.568,0.088-1.248,0.064-1.808,0.161
			c0.047-0.595-0.312-1.771,0.502-1.667C7.04,12.779,6.919,12.632,6.891,12.5c-0.815-0.001-1.641,0.175-2.451,0.121
			c-0.468-0.031-0.933-0.133-1.386-0.181c-0.358-0.038-0.71-0.052-1.064-0.101c-0.092-0.012-0.222-0.018-0.282-0.1
			c0.045-0.182,0.313-0.11,0.483-0.121c0.725-0.047,1.512-0.161,2.33-0.161c0.797,0,1.612-0.02,2.391-0.041
			c0.028-0.011,0.05-0.029,0.071-0.05c0.326,0,0.651,0,0.977,0c0.007,0.024,0.02,0.046,0.057,0.05
			c0.794,0.021,1.604,0.041,2.411,0.041c0.797,0,1.579,0.111,2.31,0.161C12.903,12.13,13.123,12.082,13.238,12.199z"/>
		<path d="M30.293,12.219c-0.016,0.121-0.172,0.089-0.242,0.101c-0.656,0.106-1.408,0.16-2.129,0.241
			c-0.117,0.013-0.227,0.052-0.342,0.06c-0.813,0.059-1.641-0.122-2.451-0.121c-0.074,0.019-0.043,0.145-0.1,0.181
			c-0.027,0.066-0.076,0.111-0.121,0.161c0.838-0.121,0.477,1.064,0.523,1.667c-0.561-0.096-1.24-0.072-1.809-0.161
			c0.074-0.588-0.26-1.586,0.482-1.506c-0.002-0.086-0.141-0.208-0.162-0.342c-0.4,0.053-0.809,0.042-1.225,0.061
			c-0.4,0.018-0.807,0.098-1.205,0.06c-0.082-0.007-0.16-0.047-0.24-0.06c-0.064-0.011-0.143,0.011-0.201,0
			c-0.613-0.114-1.463-0.108-2.109-0.241c-0.068-0.014-0.184-0.003-0.201-0.101c0.078-0.147,0.291-0.086,0.502-0.1
			c0.523-0.036,1.07-0.139,1.629-0.141c0.088,0,0.172,0.024,0.26,0.021c0.063-0.002,0.123-0.034,0.201-0.04
			c0.219-0.019,0.475,0.026,0.723,0.02c0.441-0.01,0.922-0.024,1.426-0.04c0.213-0.007,0.438,0.027,0.527-0.07
			c0.332,0,0.666,0,0.998,0c0.01,0.016,0.016,0.032,0.023,0.05c1.043,0.05,2.152,0,3.213,0.081c0.525,0.04,1.041,0.085,1.525,0.121
			C29.949,12.13,30.217,12.064,30.293,12.219z"/>
	</g>
	<path d="M17.637,16.317c-0.152,0.362-0.252,0.778-0.461,1.084c-0.209,0.045-0.502,0.008-0.744,0.021
		c-0.047,0.348-0.007,0.783-0.021,1.165c0.331-0.03,0.569,0.034,0.663,0.241c0,0.569,0,1.138,0,1.708
		c-0.057,0.09-0.131,0.163-0.221,0.221c-0.569,0-1.138,0-1.708,0c-0.09-0.058-0.163-0.131-0.221-0.221c0-0.215,0-0.546,0-0.884
		c0-0.367-0.044-0.78,0.061-0.924c0.114-0.159,0.312-0.138,0.582-0.141c0.047-0.348,0.007-0.783,0.021-1.165
		c-0.249-0.013-0.548,0.025-0.763-0.021c-0.207-0.309-0.311-0.721-0.462-1.084c0.365,0.141,0.962,0.12,1.627,0.12
		C16.639,16.437,17.221,16.464,17.637,16.317z M16.834,19.973c0.154-0.613-0.33-1.152-0.964-1.064
		c-0.653,0.09-1.007,0.949-0.462,1.466C15.888,20.831,16.693,20.532,16.834,19.973z"/>
	<path d="M16.17,18.968c0.562,0.113,0.812,0.922,0.363,1.346c-0.43,0.404-1.233,0.121-1.307-0.462
		c-0.051-0.417,0.224-0.781,0.603-0.863C15.904,18.942,16.063,18.981,16.17,18.968z"/>
</g>
<g>
	<path fill="#E53917" d="M16.001,0.265c-8.433,0-15.294,6.163-15.294,13.739c0,11.77,13.637,24.184,15.293,25.646
		c1.652-1.471,15.293-13.98,15.293-25.646C31.293,6.428,24.434,0.265,16.001,0.265z M16.001,27.206
		c-6.433,0-11.647-5.215-11.647-11.647c0-6.433,5.214-11.647,11.647-11.647c6.433,0,11.647,5.214,11.647,11.647
		C27.648,21.991,22.434,27.206,16.001,27.206z"/>
	<path fill="#FFFFFF" d="M16.001,0.516c8.294,0,15.042,6.051,15.042,13.489c0,11.236-12.822,23.306-15.043,25.312
		C13.776,37.324,0.957,25.34,0.957,14.004C0.957,6.567,7.706,0.516,16.001,0.516 M16.001,0.016c-8.585,0-15.544,6.263-15.544,13.989
		c0,12.729,15.544,25.979,15.544,25.979s15.542-13.363,15.542-25.979C31.543,6.278,24.585,0.016,16.001,0.016L16.001,0.016z"/>
</g>
</svg>
