<?xml version="1.0" encoding="utf-8"?>
<!-- Generator: Adobe Illustrator 15.1.0, SVG Export Plug-In . SVG Version: 6.00 Build 0)  -->
<!DOCTYPE svg PUBLIC "-//W3C//DTD SVG 1.1//EN" "http://www.w3.org/Graphics/SVG/1.1/DTD/svg11.dtd">
<svg version="1.1" id="Layer_1" xmlns="http://www.w3.org/2000/svg" xmlns:xlink="http://www.w3.org/1999/xlink" x="0px" y="0px"
	 width="32px" height="40px" viewBox="0 0 32 40" enable-background="new 0 0 32 40" xml:space="preserve">
<g id="Shape">
	<path fill="#3A3A3A" d="M16,39.65C14.344,38.188,0.707,25.773,0.707,14.004c0-7.576,6.861-13.739,15.294-13.739
		c8.433,0,15.292,6.163,15.292,13.739C31.293,25.67,17.652,38.18,16,39.65z"/>
	<path fill="#FFFFFF" d="M16.001,0.516c8.294,0,15.042,6.051,15.042,13.489c0,11.236-12.822,23.306-15.043,25.312
		C13.776,37.324,0.957,25.34,0.957,14.004C0.957,6.567,7.706,0.516,16.001,0.516 M16.001,0.016c-8.585,0-15.544,6.263-15.544,13.989
		c0,12.729,15.544,25.979,15.544,25.979s15.542-13.363,15.542-25.979C31.543,6.278,24.585,0.016,16.001,0.016L16.001,0.016z"/>
</g>
<circle id="Oval" fill="#FFFFFF" cx="16.001" cy="15.559" r="11.647"/>
<g>
	<path fill-rule="evenodd" clip-rule="evenodd" fill="#9A2A2A" d="M17.276,5.912c0.093,0.917,0.014,2.007,0.04,2.991
		c-1.012-0.238-2.01-0.49-3.031-0.718c0.446-0.405,0.944-0.758,1.436-1.117c0.489-0.357,0.976-0.733,1.476-1.077
		C17.206,5.949,17.276,5.965,17.276,5.912z"/>
	<path fill-rule="evenodd" clip-rule="evenodd" fill="#9A2A2A" d="M17.715,5.953c1.349,1.071,2.675,2.163,3.948,3.31
		c-0.627,1.234-1.258,2.465-1.834,3.749c-0.184-0.093-0.197-0.325-0.281-0.479c-0.574-1.069-1.246-2.263-1.833-3.389
		C17.715,8.08,17.715,7.016,17.715,5.953z"/>
	<path fill-rule="evenodd" clip-rule="evenodd" fill="#9A2A2A" d="M17.037,9.222c-0.585,0.653-1.323,1.146-1.994,1.715
		c-0.659,0.557-1.285,1.168-1.994,1.674c-0.81-0.958-1.767-1.77-2.552-2.751c1.117-0.451,2.206-0.932,3.31-1.396
		C14.89,8.71,15.934,8.996,17.037,9.222z"/>
	<path fill-rule="evenodd" clip-rule="evenodd" fill="#9A2A2A" d="M17.436,9.461c0.708,1.288,1.396,2.593,2.075,3.908
		c-2.132,0.927-4.261,1.855-6.422,2.752c0.073-0.793,0.078-1.507,0.12-2.313c0.013-0.242-0.02-0.578,0.04-0.758
		c0.084-0.256,0.736-0.694,0.997-0.917c1.029-0.882,2.151-1.768,3.11-2.592C17.366,9.498,17.435,9.514,17.436,9.461z"/>
	<path fill-rule="evenodd" clip-rule="evenodd" fill="#9A2A2A" d="M21.823,9.821c0.395,1.665,0.736,3.383,1.076,5.104
		c-0.967-0.482-1.865-1.033-2.832-1.516C20.618,12.179,21.222,11.002,21.823,9.821z"/>
	<path fill-rule="evenodd" clip-rule="evenodd" fill="#9A2A2A" d="M10.257,10.259c0.88,0.888,1.755,1.78,2.592,2.712
		c-0.024,1.146-0.086,2.253-0.16,3.35c-1.199,0.582-2.424,1.139-3.589,1.754c0.084-1.259,0.36-2.542,0.559-3.829
		C9.865,12.911,10.026,11.536,10.257,10.259z M10.497,12.054c0.031,0.009,0.079,0.001,0.08,0.04c0.252,0.013,0.289-0.19,0.279-0.438
		C10.612,11.383,10.312,11.779,10.497,12.054z M10.337,12.532c-0.063,0.505-0.181,0.98-0.279,1.556
		c-0.056,0.328-0.328,1.434,0,1.436c0.226,0.001,0.231-0.347,0.279-0.639c0.139-0.843,0.342-1.668,0.319-2.392
		C10.531,12.431,10.434,12.467,10.337,12.532z"/>
	<path fill-rule="evenodd" clip-rule="evenodd" fill="#9A2A2A" d="M22.181,20.589c-2.416-0.548-4.733-1.196-7.138-1.755
		c-0.494-0.533-0.921-1.194-1.396-1.794c-0.149-0.189-0.376-0.321-0.398-0.559c2.158-0.899,4.286-1.829,6.42-2.752
		C20.524,15.997,21.368,18.278,22.181,20.589z"/>
	<path fill-rule="evenodd" clip-rule="evenodd" fill="#9A2A2A" d="M20.188,13.928c0.963,0.473,1.871,1,2.791,1.516
		c-0.178,1.525-0.346,3.057-0.559,4.546C21.644,18.003,20.917,15.964,20.188,13.928z"/>
	<path fill-rule="evenodd" clip-rule="evenodd" fill="#9A2A2A" d="M14.564,22.423c-1.401,0.193-2.878,0.313-4.267,0.518
		c-0.493-1.395-0.805-2.97-1.276-4.386c1.222-0.666,2.547-1.228,3.789-1.875c0.654,0.755,1.245,1.573,1.874,2.353
		C14.669,20.188,14.586,21.276,14.564,22.423z"/>
	<path fill-rule="evenodd" clip-rule="evenodd" fill="#9A2A2A" d="M15.083,19.232c2.346,0.605,4.752,1.15,7.059,1.794
		c0.104,0.037-0.055,0.246-0.119,0.359c-0.502,0.85-1.18,1.828-1.676,2.711c-1.785-0.553-3.595-1.084-5.384-1.635
		C14.975,21.358,15.031,20.298,15.083,19.232z"/>
	<path fill-rule="evenodd" clip-rule="evenodd" fill="#9A2A2A" d="M19.39,24.218c-1.755,0.264-3.656,0.385-5.423,0.637
		c-1.055-0.514-2.074-1.063-3.151-1.555c1.158-0.213,2.388-0.328,3.51-0.438c0.619-0.061,1.015,0.145,1.595,0.318
		C17.069,23.522,18.296,23.858,19.39,24.218z"/>
</g>
</svg>
