<?xml version="1.0" encoding="utf-8"?>
<!-- Generator: Adobe Illustrator 15.1.0, SVG Export Plug-In . SVG Version: 6.00 Build 0)  -->
<!DOCTYPE svg PUBLIC "-//W3C//DTD SVG 1.1 Tiny//EN" "http://www.w3.org/Graphics/SVG/1.1/DTD/svg11-tiny.dtd">
<svg version="1.1" baseProfile="tiny" id="Layer_1" xmlns="http://www.w3.org/2000/svg" xmlns:xlink="http://www.w3.org/1999/xlink"
	 x="0px" y="0px" width="32px" height="40px" viewBox="0 0 32 40" xml:space="preserve">
<circle fill="#292F30" cx="16.001" cy="15.559" r="11.647"/>
<g>
	<path fill-rule="evenodd" fill="#FFFFFF" d="M15.789,9.908c0.12,0.307,0.025,0.847,0.056,1.252c-0.683,0.183-1.429-0.066-2.185,0
		C14.139,10.49,14.781,9.998,15.789,9.908z"/>
	<path fill-rule="evenodd" fill="#FFFFFF" d="M18.358,11.16c-0.718-0.022-1.514,0.172-2.187,0c0.03-0.405-0.065-0.945,0.055-1.252
		C17.236,9.998,17.879,10.49,18.358,11.16z"/>
	<path fill-rule="evenodd" fill="#FFFFFF" d="M11.583,11.458c-0.533,0.749-1.185,1.371-1.639,2.207
		c-0.403,0.043-0.666-0.066-1.038-0.06c0.548-0.913,1.414-1.479,2.185-2.147C11.256,11.458,11.42,11.458,11.583,11.458z"/>
	<path fill-rule="evenodd" fill="#FFFFFF" d="M13.987,11.637c-0.289,0.697-0.519,1.461-0.709,2.266
		c-0.963-0.063-1.957-0.091-2.896-0.178c0.526-0.818,1.109-1.573,1.803-2.207C12.825,11.514,13.417,11.563,13.987,11.637z"/>
	<path fill-rule="evenodd" fill="#FFFFFF" d="M21.636,13.665c-0.839,0.216-1.947,0.141-2.896,0.238
		c-0.199-0.776-0.389-1.563-0.71-2.207c0.575-0.06,1.283-0.3,1.747-0.178C20.481,11.701,21.108,13.232,21.636,13.665z"/>
	<path fill-rule="evenodd" fill="#FFFFFF" d="M17.646,11.637c0.201,0.776,0.535,1.404,0.657,2.266c-1.529,0-3.06,0-4.59,0
		c0.15-0.85,0.416-1.575,0.71-2.266C15.499,11.637,16.573,11.637,17.646,11.637z"/>
	<path fill-rule="evenodd" fill="#FFFFFF" d="M11.912,17.124c-0.248-0.107-0.653-0.042-0.983-0.06
		c0.183-1.052,0.52-1.938,0.874-2.803c1.317,0.093,2.765,0.043,4.043,0.178c0,0.12,0,0.239,0,0.358
		C13.96,14.947,12.804,15.891,11.912,17.124z"/>
	<path fill-rule="evenodd" fill="#FFFFFF" d="M16.172,14.439c1.279-0.135,2.726-0.085,4.044-0.178
		c0.359,0.859,0.687,1.755,0.873,2.803c-0.347-0.025-0.856,0.038-1.037,0c-0.871-1.217-2.033-2.115-3.88-2.267
		C16.172,14.678,16.172,14.56,16.172,14.439z"/>
	<path fill-rule="evenodd" fill="#FFFFFF" d="M11.966,24.459c-0.254-0.741-0.161-1.831-0.164-2.862
		c-0.006-2.182,0.254-3.783,1.53-4.951c2.457-2.248,6.491-0.582,6.884,2.982c0.08,0.733,0,1.42,0,2.327
		c0,0.901,0.074,1.853-0.164,2.504c-0.383,0-0.767,0-1.147,0c-0.1-1.726,0.136-3.044,0-4.414c-0.364-3.684-5.387-3.841-5.791-0.059
		c-0.16,1.49,0.12,2.877,0,4.472C12.731,24.459,12.348,24.459,11.966,24.459z"/>
	<path fill-rule="evenodd" fill="#FFFFFF" d="M11.693,17.541c-0.39,0.748-0.636,1.653-0.656,2.803
		c-1.041,0.003-1.933-0.156-2.949-0.178c0.125-1.056,0.35-2.002,0.709-2.804C9.807,17.374,10.753,17.454,11.693,17.541z"/>
	<path fill-rule="evenodd" fill="#FFFFFF" d="M23.274,17.362c0.263,0.885,0.553,1.744,0.654,2.804
		c-1.016,0.021-1.907,0.181-2.949,0.178c-0.033-1.116-0.23-2.054-0.655-2.743C21.182,17.383,22.258,17.407,23.274,17.362z"/>
	<path fill-rule="evenodd" fill="#FFFFFF" d="M5.793,20.285c1.244,0.251,2.658,0.319,4.042,0.417
		c-0.007,1.005-0.189,1.82-0.165,2.862c-1.385-0.177-2.9-0.212-4.205-0.478C5.485,22.055,5.637,21.167,5.793,20.285z"/>
	<path fill-rule="evenodd" fill="#FFFFFF" d="M10.054,23.564c0.018-0.955,0.127-1.81,0.164-2.744c0.169-0.094,0.65-0.094,0.819,0
		c0.037,0.896-0.073,1.949,0.055,2.744C10.793,23.75,10.417,23.508,10.054,23.564z"/>
	<path fill-rule="evenodd" fill="#FFFFFF" d="M20.925,23.625c0.127-0.818,0.021-1.888,0.055-2.805c0.17-0.094,0.649-0.094,0.819,0
		c0.037,0.935,0.146,1.789,0.164,2.744C21.577,23.54,21.333,23.671,20.925,23.625z"/>
	<path fill-rule="evenodd" fill="#FFFFFF" d="M23.602,14.082c0.177,0.145,0.261,0.392,0.438,0.538
		c0.337,0.666,0.78,1.215,1.039,1.967c0,0.04,0,0.08,0,0.119c-1.149,0.14-2.33,0.241-3.551,0.298
		c-0.238-0.974-0.591-1.821-0.821-2.802C21.722,14.283,22.833,13.877,23.602,14.082z"/>
	<path fill-rule="evenodd" fill="#FFFFFF" d="M21.034,11.518c0.137-0.01,0.171,0.091,0.22,0.178c0.643,0.61,1.392,1.105,1.855,1.909
		c-0.351,0.014-0.64,0.096-1.035,0.06c-0.461-0.831-1.104-1.46-1.641-2.207C20.657,11.452,20.881,11.446,21.034,11.518z"/>
	<path fill-rule="evenodd" fill="#FFFFFF" d="M6.995,16.468c0.304-0.801,0.718-1.483,1.202-2.087
		c0.162-0.082,0.227-0.269,0.327-0.417c0.902,0.109,1.788,0.236,2.786,0.239c-0.229,0.981-0.583,1.829-0.819,2.802
		c-1.193-0.129-2.601-0.023-3.551-0.417C6.994,16.585,6.983,16.514,6.995,16.468z"/>
	<path fill-rule="evenodd" fill="#FFFFFF" d="M6.011,19.211c0.108-0.777,0.359-1.398,0.656-1.968
		c0.046,0.011,0.051-0.023,0.055-0.06c0.406-0.077,1.018,0.114,1.583,0.06c-0.183,0.993-0.491,1.849-0.655,2.863
		c-0.603-0.038-1.106-0.185-1.749-0.18C5.9,19.646,5.999,19.475,6.011,19.211z"/>
	<path fill-rule="evenodd" fill="#AADBC9" d="M8.197,14.38c1.543-2.409,4.556-4.74,8.248-4.533c1.853,0.104,3.347,0.735,4.589,1.671
		c-0.153-0.072-0.377-0.066-0.601-0.06c0.536,0.747,1.18,1.376,1.641,2.207c0.396,0.036,0.685-0.045,1.035-0.06
		c-0.464-0.804-1.213-1.299-1.855-1.909c0.962,0.599,1.691,1.453,2.348,2.386c-0.769-0.205-1.88,0.201-2.896,0.12
		c0.23,0.981,0.583,1.829,0.821,2.802c1.221-0.057,2.401-0.158,3.551-0.298c0-0.04,0-0.079,0-0.119
		c0.107,0.199,0.221,0.394,0.271,0.656c-0.356-0.219-1.053,0.087-1.639,0c0.184,0.993,0.493,1.849,0.655,2.863
		c0.577-0.046,1.078-0.176,1.694-0.18c0.162-0.124-0.073-0.313,0-0.537c0.117,0.43,0.262,0.827,0.272,1.372
		c-0.086-0.105-0.073-0.318-0.109-0.477c-1.249,0.246-2.655,0.322-4.042,0.417c0.008,1.005,0.19,1.82,0.164,2.862
		c1.296-0.116,2.543-0.286,3.878-0.357c-1.855,0.3-3.888,0.407-5.899,0.536c-0.126,0.2,0.02,0.698-0.272,0.716
		c0.238-0.651,0.164-1.603,0.164-2.504c0-0.906,0.08-1.593,0-2.327c-0.393-3.564-4.427-5.23-6.884-2.982
		c-1.276,1.168-1.536,2.769-1.53,4.951c0.003,1.031-0.09,2.121,0.164,2.862c-0.055,0.002-0.065-0.047-0.109-0.059
		c-0.208-0.071,0.024-0.623-0.219-0.657c-2.024-0.095-3.933-0.317-5.9-0.477c-0.022-0.133-0.289-0.002-0.327-0.119
		c0.027-1.501,0.226-2.814,0.6-3.937c-0.013,0.264-0.111,0.435-0.109,0.715c0.643-0.005,1.146,0.142,1.749,0.18
		c0.164-1.015,0.472-1.87,0.655-2.863c-0.565,0.054-1.178-0.136-1.583-0.06c-0.004,0.036-0.009,0.071-0.055,0.06
		c0.06-0.312,0.169-0.57,0.328-0.775c-0.012,0.046-0.001,0.117-0.055,0.119c0.95,0.394,2.357,0.288,3.551,0.417
		c0.237-0.974,0.59-1.821,0.819-2.802c-0.999-0.003-1.884-0.13-2.786-0.239C8.424,14.111,8.359,14.299,8.197,14.38z M13.66,11.16
		c0.756-0.066,1.502,0.183,2.185,0c-0.031-0.405,0.064-0.945-0.056-1.252C14.781,9.998,14.139,10.49,13.66,11.16z M16.227,9.908
		c-0.12,0.307-0.025,0.847-0.055,1.252c0.673,0.172,1.469-0.022,2.187,0C17.879,10.49,17.236,9.998,16.227,9.908z M21.963,23.564
		c-0.018-0.955-0.127-1.81-0.164-2.744c-0.17-0.094-0.649-0.094-0.819,0c-0.034,0.917,0.072,1.986-0.055,2.805
		C21.333,23.671,21.577,23.54,21.963,23.564z M16.172,14.797c1.847,0.151,3.009,1.05,3.88,2.267c0.181,0.038,0.69-0.025,1.037,0
		c-0.187-1.047-0.514-1.943-0.873-2.803c-1.318,0.093-2.765,0.043-4.044,0.178C16.172,14.56,16.172,14.678,16.172,14.797z
		 M15.845,14.797c0-0.119,0-0.238,0-0.358c-1.278-0.135-2.726-0.085-4.043-0.178c-0.354,0.865-0.69,1.751-0.874,2.803
		c0.33,0.018,0.736-0.048,0.983,0.06C12.804,15.891,13.96,14.947,15.845,14.797z M11.092,23.564
		c-0.127-0.795-0.018-1.849-0.055-2.744c-0.169-0.094-0.65-0.094-0.819,0c-0.037,0.935-0.146,1.789-0.164,2.744
		C10.417,23.508,10.793,23.75,11.092,23.564z M5.466,23.087c1.305,0.266,2.82,0.301,4.205,0.478
		c-0.025-1.042,0.157-1.857,0.165-2.862c-1.384-0.099-2.798-0.166-4.042-0.417C5.637,21.167,5.485,22.055,5.466,23.087z
		 M11.092,11.458c-0.771,0.668-1.637,1.234-2.185,2.147c0.372-0.007,0.634,0.103,1.038,0.06c0.454-0.836,1.105-1.458,1.639-2.207
		C11.42,11.458,11.256,11.458,11.092,11.458z M12.185,11.518c-0.694,0.633-1.277,1.389-1.803,2.207
		c0.939,0.087,1.933,0.116,2.896,0.178c0.191-0.805,0.42-1.569,0.709-2.266C13.417,11.563,12.825,11.514,12.185,11.518z
		 M19.777,11.518c-0.464-0.122-1.172,0.118-1.747,0.178c0.321,0.644,0.511,1.43,0.71,2.207c0.948-0.097,2.057-0.022,2.896-0.238
		C21.108,13.232,20.481,11.701,19.777,11.518z M14.424,11.637c-0.294,0.691-0.56,1.416-0.71,2.266c1.53,0,3.061,0,4.59,0
		c-0.122-0.862-0.456-1.489-0.657-2.266C16.573,11.637,15.499,11.637,14.424,11.637z M8.798,17.362
		c-0.359,0.801-0.584,1.748-0.709,2.804c1.016,0.021,1.908,0.181,2.949,0.178c0.02-1.15,0.266-2.055,0.656-2.803
		C10.753,17.454,9.807,17.374,8.798,17.362z M20.324,17.601c0.425,0.689,0.622,1.627,0.655,2.743
		c1.042,0.003,1.934-0.156,2.949-0.178c-0.102-1.06-0.392-1.919-0.654-2.804C22.258,17.407,21.182,17.383,20.324,17.601z"/>
	<path fill-rule="evenodd" fill="#FFFFFF" d="M25.35,17.243c0.319,0.626,0.538,1.361,0.711,2.147c-0.073,0.224,0.162,0.413,0,0.537
		c-0.616,0.004-1.117,0.133-1.694,0.18c-0.162-1.015-0.472-1.87-0.655-2.863C24.297,17.33,24.993,17.023,25.35,17.243z"/>
	<path fill-rule="evenodd" fill="#73A896" d="M11.966,24.459c0.382,0,0.766,0,1.147,0c0.12-1.595-0.16-2.982,0-4.472
		c0.404-3.782,5.427-3.625,5.791,0.059c0.136,1.37-0.1,2.688,0,4.414c0.381,0,0.765,0,1.147,0
		C17.546,24.472,14.471,24.472,11.966,24.459z"/>
	<path fill-rule="evenodd" fill="#FFFFFF" d="M26.333,20.762c0.171,0.673,0.331,1.662,0.219,2.445c-0.109,0-0.219,0-0.328,0
		c-1.335,0.071-2.582,0.241-3.878,0.357c0.026-1.042-0.156-1.857-0.164-2.862c1.387-0.096,2.793-0.172,4.042-0.417
		C26.26,20.444,26.247,20.656,26.333,20.762z"/>
</g>
<g>
	<path fill="#2B4D56" d="M16.001,0.265c-8.433,0-15.294,6.163-15.294,13.739c0,11.77,13.637,24.184,15.293,25.646
		c1.652-1.471,15.293-13.98,15.293-25.646C31.293,6.428,24.434,0.265,16.001,0.265z M16.001,27.206
		c-6.433,0-11.647-5.215-11.647-11.647c0-6.433,5.214-11.647,11.647-11.647c6.433,0,11.647,5.214,11.647,11.647
		C27.648,21.991,22.434,27.206,16.001,27.206z"/>
	<path fill="#FFFFFF" d="M16.001,0.516c8.294,0,15.042,6.051,15.042,13.489c0,11.236-12.822,23.306-15.043,25.312
		C13.776,37.324,0.957,25.34,0.957,14.004C0.957,6.567,7.706,0.516,16.001,0.516 M16.001,0.016c-8.585,0-15.544,6.263-15.544,13.989
		c0,12.729,15.544,25.979,15.544,25.979s15.542-13.363,15.542-25.979C31.543,6.278,24.585,0.016,16.001,0.016L16.001,0.016z"/>
</g>
</svg>
