<?xml version="1.0" encoding="utf-8"?>
<!-- Generator: Adobe Illustrator 15.1.0, SVG Export Plug-In . SVG Version: 6.00 Build 0)  -->
<!DOCTYPE svg PUBLIC "-//W3C//DTD SVG 1.1 Tiny//EN" "http://www.w3.org/Graphics/SVG/1.1/DTD/svg11-tiny.dtd">
<svg version="1.1" baseProfile="tiny" id="Layer_1" xmlns="http://www.w3.org/2000/svg" xmlns:xlink="http://www.w3.org/1999/xlink"
	 x="0px" y="0px" width="32px" height="40px" viewBox="0 0 32 40" xml:space="preserve">
<circle fill="#FFFFFF" cx="16.001" cy="15.559" r="11.647"/>
<g>
	<path fill="#EF9825" d="M16.001,0.265c-8.433,0-15.294,6.163-15.294,13.739c0,11.77,13.637,24.184,15.293,25.646
		c1.652-1.471,15.293-13.98,15.293-25.646C31.293,6.428,24.434,0.265,16.001,0.265z M16.001,27.206
		c-6.433,0-11.647-5.215-11.647-11.647c0-6.433,5.214-11.647,11.647-11.647c6.433,0,11.647,5.214,11.647,11.647
		C27.648,21.991,22.434,27.206,16.001,27.206z"/>
	<path fill="#FFFFFF" d="M16.001,0.516c8.294,0,15.042,6.051,15.042,13.489c0,11.236-12.822,23.306-15.043,25.312
		C13.776,37.324,0.957,25.34,0.957,14.004C0.957,6.567,7.706,0.516,16.001,0.516 M16.001,0.016c-8.585,0-15.544,6.263-15.544,13.989
		c0,12.729,15.544,25.979,15.544,25.979s15.542-13.363,15.542-25.979C31.543,6.278,24.585,0.016,16.001,0.016L16.001,0.016z"/>
</g>
<g>
	<path fill="#50B0FF" d="M6.669,10.104c5.413,1.358,13.178,1.312,18.672,0.061c0,4.021,0,8.042,0,12.064
		c-0.463-0.063-0.854-0.197-1.334-0.244c-1.56-2.624-3.175-5.254-4.85-8c-0.238-0.392-0.558-0.955-0.849-0.97
		c-0.494-0.026-0.832,0.916-1.091,1.333c-0.954,1.539-1.945,2.941-2.789,4.486c-0.426-0.359-0.589-0.814-0.97-1.395
		c-0.22-0.335-0.681-1.267-1.091-1.274c-0.439-0.007-0.911,0.973-1.152,1.334c-0.939,1.409-1.996,3.219-2.91,4.364
		c-0.484,0.162-1.108,0.186-1.576,0.365C6.588,18.308,6.709,14.125,6.669,10.104z M10.367,14.954
		c0.343-0.117,0.923-0.643,0.849-1.455c-0.074-0.806-0.726-1.286-1.577-1.152C7.627,12.663,8.571,15.567,10.367,14.954z"/>
	<path fill="#4C4C4C" d="M18.248,14.287c1.59,2.412,3.031,4.97,4.606,7.395c-1.497-0.148-4.089-0.402-5.94-0.482
		c-0.306-0.014-0.91,0-0.91,0s-0.532-0.771-1.091-1.456C15.97,17.87,17.19,16.16,18.248,14.287z"/>
	<path fill="#54C127" d="M12.307,17.439c0.886,1.215,1.704,2.499,2.485,3.818c-1.868-0.01-3.503,0.215-5.153,0.424
		C10.458,20.197,11.486,18.922,12.307,17.439z"/>
</g>
</svg>
