<?xml version="1.0" encoding="utf-8"?>
<!-- Generator: Adobe Illustrator 15.1.0, SVG Export Plug-In . SVG Version: 6.00 Build 0)  -->
<!DOCTYPE svg PUBLIC "-//W3C//DTD SVG 1.1 Tiny//EN" "http://www.w3.org/Graphics/SVG/1.1/DTD/svg11-tiny.dtd">
<svg version="1.1" baseProfile="tiny" id="Layer_1" xmlns="http://www.w3.org/2000/svg" xmlns:xlink="http://www.w3.org/1999/xlink"
	 x="0px" y="0px" width="32px" height="40px" viewBox="0 0 32 40" xml:space="preserve">
<g id="Shape">
	<path fill="#31A850" d="M16,39.65C14.344,38.188,0.707,25.773,0.707,14.004c0-7.576,6.861-13.739,15.294-13.739
		c8.433,0,15.292,6.163,15.292,13.739C31.293,25.67,17.652,38.18,16,39.65z"/>
	<path fill="#FFFFFF" d="M16.001,0.516c8.294,0,15.042,6.051,15.042,13.489c0,11.236-12.822,23.306-15.043,25.312
		C13.776,37.324,0.957,25.34,0.957,14.004C0.957,6.567,7.706,0.516,16.001,0.516 M16.001,0.016c-8.585,0-15.544,6.263-15.544,13.989
		c0,12.729,15.544,25.979,15.544,25.979s15.542-13.363,15.542-25.979C31.543,6.278,24.585,0.016,16.001,0.016L16.001,0.016z"/>
</g>
<circle id="Oval" fill="#FFFFFF" stroke="#FFFFFF" stroke-miterlimit="10" cx="16.001" cy="15.559" r="11.647"/>
<g>
	<path fill-rule="evenodd" fill="#00577D" d="M25.675,21.809c-2.054-2.114-4.491-3.793-7.669-4.833
		c-0.751-0.245-1.591-0.396-2.465-0.415c-0.364-0.008-1.261,0.077-1.285-0.294c-0.021-0.339,0.709-1.18,0.93-1.477
		c0.226-0.303,0.372-0.676,0.518-0.939c0.335-0.605,0.761-1.343,0.863-2.051c0.038-0.269,0.025-0.47-0.038-0.671
		c-0.111-0.349-0.363-0.68-0.614-0.94c-0.758-0.783-1.978-1.119-3.375-1.227c-0.948-0.073-1.954-0.057-2.876-0.191
		C8.778,8.64,8.001,8.412,7.363,8.002C7.439,7.843,7.585,7.726,7.708,7.6c0.836-0.853,1.813-1.646,2.953-2.224
		c1.323-0.67,2.865-1.218,4.679-1.304c2.624-0.124,4.708,0.555,6.405,1.534c1.688,0.975,3.034,2.302,4.026,3.893
		c1.024,1.643,1.726,3.637,1.726,6.213C27.497,18.245,26.69,20.128,25.675,21.809z"/>
	<path fill-rule="evenodd" fill="#00577D" d="M16.683,27.062c-0.454,0-0.908,0-1.362,0c-3.276-0.262-5.675-1.571-7.458-3.355
		c-1.784-1.783-3.094-4.182-3.356-7.458c0-0.479,0-0.958,0-1.438c0.144-2.279,0.805-4.04,1.822-5.446
		c0.781,0.511,1.889,0.777,3.298,0.882c0.646,0.048,1.35,0.058,1.995,0.096c1.112,0.066,2.46,0.271,2.301,1.477
		c-0.063,0.48-0.379,0.929-0.652,1.285c-0.589,0.771-1.112,1.381-1.745,2.128c-0.314,0.373-1.149,1.118-1.075,1.67
		c0.119,0.888,0.674,1.135,1.099,1.177c0.548,0.054,0.764,0.048,1.409,0.046c1.124-0.003,1.922-0.024,2.786,0.232
		c1.105,0.329,2.151,0.81,3.144,1.4c1.928,1.142,3.405,2.613,4.392,4.697c-0.389,0.386-0.868,0.671-1.343,0.959
		C20.505,26.285,18.82,26.911,16.683,27.062z"/>
</g>
<path fill="#FEC900" d="M16.53,16.042c0.463-0.045,0.942,0.088,1.4,0.137c1.435,0.152,2.589,0.953,3.632,1.833
	c0.467,0.394,1.033,0.601,1.521,0.949c0.166,0.119,0.332,0.261,0.416,0.463c0.256,0.622-0.371,0.385-0.781,0.256
	c-1.347-0.423-2.398-1.464-3.676-2.055c-1.064-0.492-2.21-0.518-3.354-0.719c-0.513-0.09-1.831-0.157-1.638-0.699
	c0.123-0.344,0.351-0.656,0.576-0.94c0.083-0.104,0.217-0.333,0.34-0.39c0.092-0.042,0.105-0.015,0.195,0.054
	c0.18,0.137,0.112,0.25,0.183,0.443C15.453,15.672,16.207,16.074,16.53,16.042z"/>
<path fill="#FEC900" d="M11.964,10.25c0.205,0,0.398,0.032,0.594,0.079c0.325,0.077,0.703,0.095,1.004,0.253
	c0.499,0.262,0.988,0.769,0.77,1.392c-0.117,0.333-0.261,0.613-0.535,0.858c-0.128,0.114-0.585,0.549-0.717,0.525
	c-0.004-0.246,0.195-0.516,0.294-0.732c0.131-0.285,0.217-0.742,0.125-1.05c-0.269-0.9-2.167-1.203-2.219-1.247
	C11.281,10.328,11.77,10.25,11.964,10.25z"/>
</svg>
