<?xml version="1.0" encoding="utf-8"?>
<!-- Generator: Adobe Illustrator 15.1.0, SVG Export Plug-In . SVG Version: 6.00 Build 0)  -->
<!DOCTYPE svg PUBLIC "-//W3C//DTD SVG 1.1//EN" "http://www.w3.org/Graphics/SVG/1.1/DTD/svg11.dtd">
<svg version="1.1" id="Layer_1" xmlns="http://www.w3.org/2000/svg" xmlns:xlink="http://www.w3.org/1999/xlink" x="0px" y="0px"
	 width="32px" height="40px" viewBox="0 0 32 40" enable-background="new 0 0 32 40" xml:space="preserve">
<g id="Shape">
	<path fill="#981AE2" d="M16,39.65C14.344,38.188,0.707,25.773,0.707,14.004c0-7.576,6.861-13.739,15.294-13.739
		c8.433,0,15.292,6.163,15.292,13.739C31.293,25.67,17.652,38.18,16,39.65z"/>
	<path fill="#FFFFFF" d="M16.001,0.516c8.294,0,15.042,6.051,15.042,13.489c0,11.236-12.822,23.306-15.043,25.312
		C13.776,37.324,0.957,25.34,0.957,14.004C0.957,6.567,7.706,0.516,16.001,0.516 M16.001,0.016c-8.585,0-15.544,6.263-15.544,13.989
		c0,12.729,15.544,25.979,15.544,25.979s15.542-13.363,15.542-25.979C31.543,6.278,24.585,0.016,16.001,0.016L16.001,0.016z"/>
</g>
<circle id="Oval" fill="#FFFFFF" cx="16.001" cy="15.559" r="11.647"/>
<g>
	<title>Layer 1</title>
	<g id="Ebene_2">
		<g id="Ebene_1-2">
			<path id="svg_1" fill="#FFDF4D" d="M5.47,26.338c-0.324-0.091-0.484-0.876-0.465-1.248c0.093-1.667,0.038-2.078,0.129-3.743
				c0.888,0.122,1.58-0.079,2.488-0.056c1.224-0.355,1.511-0.307,2.701-0.747c0.365,0.99,1.062,1.058,1.495,1.987
				c-0.771,0.984-1.066,2.213-1.655,3.291c-0.607,0.427-1.213,0.857-1.823,1.283C7.282,26.973,6.574,26.305,5.47,26.338L5.47,26.338
				z"/>
			<path id="svg_2" fill="#FEC900" d="M8.334,27.107l1.835-1.285c0.488,0.52,1.169,0.772,1.77,1.103
				c1.308,0.734,2.52,1.684,3.945,2.203c-1.781,0.349-2.855,0.079-4.273,0.145c-0.415,0.019-0.831,0.012-1.248,0.016l-1.544-0.076
				L8.334,27.107z"/>
			<path id="svg_3" fill="#FEC900" d="M18.123,26.975c-0.109,1.286-0.658,1.78-1.79,1.929c0.247-1.684-0.199-3.148-1.393-4.387
				c-0.289-0.339-0.553-0.695-0.795-1.068l0,0c1.625,0.465,2.979,0.058,4.051-1.266c0.232,0.307,0.311,0.655,0.465,1.022
				c-0.305,0.183-0.365,0.262-0.668,0.447c-0.545,0.334-1.543,0.623-1.457,1.09c0.08,0.526,1.201,0.526,1.838,0.739L18.123,26.975z"
				/>
			<path id="svg_4" fill="#EFB100" d="M10.612,13.887c0,1.519-2.978,5.886-2.987,7.404c-0.908-0.023-1.601,0.178-2.488,0.056
				c0.771-1.26,1.391-3.121,2.157-4.381C7.375,16.832,10.442,13.887,10.612,13.887z"/>
			<path id="svg_5" fill="#EFB100" d="M18.375,25.481c-0.637-0.213-1.887-0.213-1.979-0.757c-0.078-0.469,1.04-0.752,1.583-1.086
				c0.305-0.192,0.367-0.256,0.672-0.439C18.783,24.526,19.039,24.734,18.375,25.481z"/>
			<path id="svg_6" fill="#EFB100" d="M8.346,27.1c0.099,0.619,0.601,1.441,0.465,2.104c-1.264-0.704-2.243-1.93-3.341-2.865
				C6.574,26.305,7.28,26.969,8.346,27.1z"/>
			<path id="svg_7" fill="#EFB100" d="M14.15,23.44c0.254,0.366,0.531,0.715,0.832,1.043c1.193,1.239,1.596,2.736,1.352,4.422l0,0
				c-0.168,0.083-0.211,0.097-0.357,0.176c-0.041,0.024-0.086,0.038-0.133,0.043c-1.436-0.512-2.619-1.471-3.928-2.207
				c-0.598-0.336-1.268-0.579-1.756-1.095c0.589-1.078,0.876-2.314,1.655-3.291C12.598,22.838,13.376,23.133,14.15,23.44
				L14.15,23.44z"/>
			<path id="svg_8" fill="#FEC900" d="M10.612,13.887l1.555,0.517l0.029,0.141v0.614l-0.095,0.481l-0.318,1.32l-0.085,0.542
				l0.036,0.267l0.16,0.233l0.579,0.556l0.02,0.017c0.467,0.438,2.636,2.147,2.384,2.736c-0.305,0.715-0.504,1.387-0.771,2.122
				l-2.334-0.832c-0.433-0.93-1.067-1.015-1.736-1.653c-1.289,0.083-1.181-0.012-2.404,0.344
				C7.634,19.772,10.6,15.405,10.612,13.887"/>
			<path id="svg_9" fill="#FFDF4D" d="M14.107,23.433c0.258-0.735,0.43-1.511,0.734-2.227c0.254-0.579-2.768-2.822-3.086-3.382
				c-0.289-0.523,0.605-2.395,0.411-3.421c0.965,0.193,2.396,3.118,3.12,3.579c0.945,0.602,1.874,1.736,2.401,2.757
				c0.232,0.447,0.336,0.965,0.498,1.441C17.092,23.542,15.708,23.957,14.107,23.433L14.107,23.433z"/>
		</g>
	</g>
</g>
<g>
	<path d="M14.452,6.582c1.056-0.68,2.355-1.021,3.894-1.021c2.023,0,3.704,0.483,5.043,1.45c1.338,0.967,2.008,2.399,2.008,4.297
		c0,1.164-0.289,2.145-0.87,2.941c-0.34,0.484-0.991,1.102-1.956,1.854l-0.95,0.739c-0.519,0.403-0.861,0.873-1.032,1.41
		c-0.106,0.341-0.165,0.869-0.174,1.585h-3.639c0.053-1.513,0.196-2.559,0.428-3.136c0.232-0.578,0.83-1.242,1.795-1.994
		l0.977-0.766c0.322-0.242,0.581-0.505,0.776-0.792c0.356-0.492,0.536-1.034,0.536-1.625c0-0.68-0.199-1.3-0.597-1.86
		c-0.397-0.559-1.123-0.839-2.176-0.839c-1.036,0-1.771,0.345-2.205,1.034c-0.433,0.69-0.649,1.406-0.649,2.148h-3.881
		C11.887,9.456,12.777,7.647,14.452,6.582z M16.682,21.676h4.015v3.882h-4.015V21.676z"/>
</g>
</svg>
