<?xml version="1.0" encoding="utf-8"?>
<!-- Generator: Adobe Illustrator 15.1.0, SVG Export Plug-In . SVG Version: 6.00 Build 0)  -->
<!DOCTYPE svg PUBLIC "-//W3C//DTD SVG 1.1//EN" "http://www.w3.org/Graphics/SVG/1.1/DTD/svg11.dtd">
<svg version="1.1" id="Layer_1" xmlns="http://www.w3.org/2000/svg" xmlns:xlink="http://www.w3.org/1999/xlink" x="0px" y="0px"
	 width="32px" height="40px" viewBox="0 0 32 40" enable-background="new 0 0 32 40" xml:space="preserve">
<g id="Shape">
	<path fill="#3366FF" d="M16,39.65C14.344,38.188,0.707,25.773,0.707,14.004c0-7.576,6.861-13.739,15.294-13.739
		c8.433,0,15.292,6.163,15.292,13.739C31.293,25.67,17.652,38.18,16,39.65z"/>
	<path fill="#FFFFFF" d="M16.001,0.516c8.294,0,15.042,6.051,15.042,13.489c0,11.236-12.822,23.306-15.043,25.312
		C13.776,37.324,0.957,25.34,0.957,14.004C0.957,6.567,7.706,0.516,16.001,0.516 M16.001,0.016c-8.585,0-15.544,6.263-15.544,13.989
		c0,12.729,15.544,25.979,15.544,25.979s15.542-13.363,15.542-25.979C31.543,6.278,24.585,0.016,16.001,0.016L16.001,0.016z"/>
</g>
<path fill="#FFFFFF" d="M23.05,8.781c0,0.752-0.553,1.017-1.304,1.017h-0.468V7.801h0.646C22.634,7.801,23.05,8.061,23.05,8.781z
	 M27.004,7.054v5.884c0,1.161-0.94,2.101-2.102,2.101h-5.885c-1.16,0-2.101-0.94-2.101-2.102V7.054c0-1.161,0.94-2.102,2.102-2.102
	h5.885C26.063,4.952,27.004,5.893,27.004,7.054z M24.482,8.731c0-0.696-0.212-1.22-0.634-1.571c-0.423-0.352-1.04-0.526-1.852-0.526
	h-2.138v6.725h1.419v-2.393h0.608c0.83,0,1.471-0.192,1.92-0.575C24.257,10.008,24.482,9.455,24.482,8.731z M7.474,14.122H5.455
	c-0.253,0-0.458,0.206-0.458,0.458v0.468c0,0.728,0.849,0.907,1.482,0.907L7.474,14.122z M24.971,16.867l-0.068,0.006h-5.885
	c-4.996,0-7.446-0.33-9.383-0.942c0,0,0.678-1.675,1.496-2.881c0.185-0.273,0.472-0.46,0.797-0.519
	c1.087-0.196,2.073-0.285,3.156-0.315v-1.75c-1.313,0.027-2.385,0.117-3.531,0.322c-0.932,0.167-1.33,0.465-2.089,1.732
	c-0.989,1.649-1.927,3.406-2.686,4.816c-0.586,1.087-0.868,2.065-0.868,3.362c0,1.256,0.364,2.322,0.921,3.649v1.694
	c0,0.506,0.411,0.917,0.917,0.917h1.375c0.506,0,0.917-0.411,0.917-0.917v-0.917h11.921v0.917c0,0.506,0.41,0.917,0.917,0.917h1.374
	c0.506,0,0.917-0.411,0.917-0.917v-1.694c0.558-1.327,0.922-2.394,0.922-3.649c0-1.297-0.281-2.275-0.868-3.362L24.971,16.867z
	 M9.123,21.458c-0.76,0-1.375-0.616-1.375-1.375s0.616-1.375,1.375-1.375c0.759,0,1.375,0.616,1.375,1.375
	S9.882,21.458,9.123,21.458z M19.21,21.458h-6.419c-0.253,0-0.458-0.206-0.458-0.458c0-0.253,0.206-0.459,0.458-0.459h6.419
	c0.252,0,0.458,0.206,0.458,0.459C19.668,21.252,19.462,21.458,19.21,21.458z M22.878,21.458c-0.76,0-1.376-0.616-1.376-1.375
	s0.616-1.375,1.376-1.375c0.759,0,1.375,0.616,1.375,1.375S23.637,21.458,22.878,21.458z"/>
</svg>
