<?xml version="1.0" encoding="utf-8"?>
<!-- Generator: Adobe Illustrator 15.1.0, SVG Export Plug-In . SVG Version: 6.00 Build 0)  -->
<!DOCTYPE svg PUBLIC "-//W3C//DTD SVG 1.1 Tiny//EN" "http://www.w3.org/Graphics/SVG/1.1/DTD/svg11-tiny.dtd">
<svg version="1.1" baseProfile="tiny" id="Layer_1" xmlns="http://www.w3.org/2000/svg" xmlns:xlink="http://www.w3.org/1999/xlink"
	 x="0px" y="0px" width="32px" height="40px" viewBox="0 0 32 40" xml:space="preserve">
<circle fill="#FFFFFF" cx="16.001" cy="15.559" r="11.647"/>
<g>
	<g transform="translate(0.000000,397.000000) scale(0.100000,-0.100000)">
		<path d="M86.714,3904.584c-0.449-1.968-1.782-6.45-3.018-10.02c-6.406-18.901-16.748-37.158-27.324-48.325l-2.466-2.563
			l1.099-0.688c0.591-0.366,3.428-1.924,6.313-3.525c2.886-1.553,5.444-3.018,5.674-3.203c0.645-0.645-4.756-9.839-9.751-16.47
			c-1.416-1.88-3.975-4.946-5.762-6.777c-2.749-2.93-3.066-3.481-2.427-3.931c0.366-0.283,3.389-1.929,6.724-3.711
			c3.296-1.743,6.001-3.34,6.001-3.525c0-0.498-4.395-7.915-7.368-12.31c-2.93-4.39-6.318-8.647-9.521-11.987
			c-2.061-2.153-2.104-2.241-1.191-2.93c0.508-0.361,3.574-2.012,6.865-3.574c6.001-2.881,12.31-5.166,17.388-6.318l2.749-0.635
			l0.142-7.598l0.088-7.637h2.241h2.202l22.827,31.431c12.539,17.305,23.301,32.085,23.848,32.861l0.957,1.465l-2.51,3.164
			c-2.842,3.564-8.467,11.895-10.615,15.786l-1.465,2.607l1.504,0.913c0.82,0.508,3.672,2.061,6.309,3.525
			c2.656,1.421,5,2.788,5.273,3.018c0.273,0.273-0.596,1.509-2.334,3.291c-12.539,12.954-25.264,37.393-30.85,59.268
			c-0.273,1.05-0.547,1.924-0.635,1.924C87.632,3908.115,87.173,3906.513,86.714,3904.584z"/>
		<path d="M234.307,3882.851c-5.527-2.749-10.986-8.198-13.633-13.643c-2.617-5.264-3.34-8.418-3.34-14.185
			c0-8.604,2.92-15.791,8.926-21.782c3.701-3.711,7.588-6.089,12.588-7.871c3.047-1.055,4.16-1.191,9.424-1.191
			c5.225,0,6.406,0.186,9.609,1.24c4.902,1.646,7.822,3.433,11.67,6.997c3.018,2.881,6.768,7.778,6.279,8.237
			c-0.137,0.142-1.055-0.186-2.021-0.64c-5.498-2.837-14.004-3.477-20.273-1.558c-8.965,2.793-15.752,9.292-19.131,18.306
			c-0.82,2.285-1.182,4.258-1.377,7.92c-0.322,6.953,0.957,11.855,4.482,17.3c1.016,1.553,1.563,2.788,1.24,2.788
			C238.467,3884.77,236.465,3883.901,234.307,3882.851z"/>
		<path d="M125.347,3804.135l-44.575-61.46l-18.218-0.146l-18.169-0.088v-7.783v-7.783H160.62h116.255l-0.098,7.695l-0.127,7.646
			l-8.467,0.137l-8.477,0.127l-22.979,31.675c-55.547,76.66-66.113,91.167-66.436,91.304
			C170.098,3865.507,149.878,3837.91,125.347,3804.135z M172.529,3825.737c2.012-6.685,5.898-16.338,9.795-24.487
			c12.256-25.493,27.822-46.182,42.568-56.563l3.145-2.236H199.16h-28.916l0.049,44.985c0,24.756,0.186,44.521,0.41,44.023
			C170.879,3830.952,171.758,3828.388,172.529,3825.737z"/>
	</g>
</g>
<g>
	<path fill="#449E53" d="M16.001,0.265c-8.433,0-15.294,6.163-15.294,13.739c0,11.77,13.637,24.184,15.293,25.646
		c1.652-1.471,15.293-13.98,15.293-25.646C31.293,6.428,24.434,0.265,16.001,0.265z M16.001,27.206
		c-6.433,0-11.647-5.215-11.647-11.647c0-6.433,5.214-11.647,11.647-11.647c6.433,0,11.647,5.214,11.647,11.647
		C27.648,21.991,22.434,27.206,16.001,27.206z"/>
	<path fill="#FFFFFF" d="M16.001,0.516c8.294,0,15.042,6.051,15.042,13.489c0,11.236-12.822,23.306-15.043,25.312
		C13.776,37.324,0.957,25.34,0.957,14.004C0.957,6.567,7.706,0.516,16.001,0.516 M16.001,0.016c-8.585,0-15.544,6.263-15.544,13.989
		c0,12.729,15.544,25.979,15.544,25.979s15.542-13.363,15.542-25.979C31.543,6.278,24.585,0.016,16.001,0.016L16.001,0.016z"/>
</g>
</svg>
