<?xml version="1.0" encoding="utf-8"?>
<!-- Generator: Adobe Illustrator 15.1.0, SVG Export Plug-In . SVG Version: 6.00 Build 0)  -->
<!DOCTYPE svg PUBLIC "-//W3C//DTD SVG 1.1 Tiny//EN" "http://www.w3.org/Graphics/SVG/1.1/DTD/svg11-tiny.dtd">
<svg version="1.1" baseProfile="tiny" id="Layer_1" xmlns="http://www.w3.org/2000/svg" xmlns:xlink="http://www.w3.org/1999/xlink"
	 x="0px" y="0px" width="32px" height="40px" viewBox="0 0 32 40" xml:space="preserve">
<g id="Shape">
	<path fill="#3A3A3A" d="M16,39.65C14.344,38.188,0.707,25.773,0.707,14.004c0-7.576,6.861-13.739,15.294-13.739
		c8.433,0,15.292,6.163,15.292,13.739C31.293,25.67,17.652,38.18,16,39.65z"/>
	<path fill="#FFFFFF" d="M16.001,0.516c8.294,0,15.042,6.051,15.042,13.489c0,11.236-12.822,23.306-15.043,25.312
		C13.776,37.324,0.957,25.34,0.957,14.004C0.957,6.567,7.706,0.516,16.001,0.516 M16.001,0.016c-8.585,0-15.544,6.263-15.544,13.989
		c0,12.729,15.544,25.979,15.544,25.979s15.542-13.363,15.542-25.979C31.543,6.278,24.585,0.016,16.001,0.016L16.001,0.016z"/>
</g>
<circle id="Oval" fill="#FFFFFF" cx="16.001" cy="15.559" r="11.647"/>
<g>
	<g transform="translate(0.000000,511.000000) scale(0.100000,-0.100000)">
		<path fill="#BC2020" d="M94.619,5014.257c1.567-2.905,25.195-41.47,25.352-41.426c0.239,0,32.432,41.475,32.622,41.997
			c0.078,0.195-12.358,0.356-29.15,0.356H94.087L94.619,5014.257z"/>
		<path fill="#BC2020" d="M167.285,5014.829c0.215-0.522,32.402-41.997,32.637-41.997c0.234-0.044,27.461,41.743,27.461,42.109
			c0,0.122-13.574,0.244-30.117,0.244C179.98,5015.185,167.207,5015.024,167.285,5014.829z"/>
		<path fill="#BC2020" d="M144.155,4990.434l-15.591-21.88l15.708-0.122c8.604-0.034,22.739-0.034,31.333,0l15.703,0.122
			l-15.586,21.88c-8.555,12.08-15.654,21.924-15.781,21.924C159.824,5012.358,152.72,5002.514,144.155,4990.434z"/>
		<path fill="#BC2020" d="M72.036,4990.078l-15.342-21.523l27.861-0.122c15.352-0.044,27.939,0,28.022,0.078
			c0.244,0.205-24.59,43.003-24.956,43.047C87.505,5011.557,80.474,5001.865,72.036,4990.078z"/>
		<path fill="#BC2020" d="M220.547,4990.151c-7.344-11.792-13.359-21.484-13.359-21.597c0-0.122,12.637-0.205,28.066-0.205h28.047
			l-14.453,21.606c-7.91,11.865-14.531,21.558-14.648,21.602C234.043,5011.557,227.91,5001.914,220.547,4990.151z"/>
		<path fill="#BC2020" d="M60.854,4958.579c9.937-10.454,98.809-101.265,99.087-101.265c0.293,0,86.016,87.612,98.887,101.064
			l1.816,1.899h-29.023h-29.082l-20.801-50.474c-11.426-27.744-20.835-50.391-20.864-50.361c-0.049,0.088,7.173,22.617,16.06,50.117
			c8.848,27.495,16.113,50.156,16.113,50.356c0,0.19-13.652,0.356-33.105,0.356c-21.323,0-33.11-0.117-33.11-0.4
			c0-0.205,7.271-22.861,16.113-50.356c8.887-27.495,16.118-49.985,16.069-50.073c-0.044-0.029-9.448,22.617-20.874,50.361
			l-20.796,50.474H88.271H59.238L60.854,4958.579z"/>
	</g>
</g>
</svg>
