<?xml version="1.0" encoding="utf-8"?>
<!-- Generator: Adobe Illustrator 15.1.0, SVG Export Plug-In . SVG Version: 6.00 Build 0)  -->
<!DOCTYPE svg PUBLIC "-//W3C//DTD SVG 1.1//EN" "http://www.w3.org/Graphics/SVG/1.1/DTD/svg11.dtd">
<svg version="1.1" id="Layer_1" xmlns="http://www.w3.org/2000/svg" xmlns:xlink="http://www.w3.org/1999/xlink" x="0px" y="0px"
	 width="32px" height="40px" viewBox="0 0 32 40" enable-background="new 0 0 32 40" xml:space="preserve">
<g id="Shape">
	<linearGradient id="SVGID_1_" gradientUnits="userSpaceOnUse" x1="26.6777" y1="33.4863" x2="8.5024" y2="2.0058">
		<stop  offset="0" style="stop-color:#609EE2"/>
		<stop  offset="0.5122" style="stop-color:#80BFF0"/>
		<stop  offset="1" style="stop-color:#A3E3FF"/>
	</linearGradient>
	<path fill="url(#SVGID_1_)" d="M16,39.65C14.344,38.188,0.707,25.773,0.707,14.004c0-7.576,6.861-13.739,15.294-13.739
		c8.433,0,15.292,6.163,15.292,13.739C31.293,25.67,17.652,38.18,16,39.65z"/>
	<path fill="#FFFFFF" d="M16.001,0.516c8.294,0,15.042,6.051,15.042,13.489c0,11.236-12.822,23.306-15.043,25.312
		C13.776,37.324,0.957,25.34,0.957,14.004C0.957,6.567,7.706,0.516,16.001,0.516 M16.001,0.016c-8.585,0-15.544,6.263-15.544,13.989
		c0,12.729,15.544,25.979,15.544,25.979s15.542-13.363,15.542-25.979C31.543,6.278,24.585,0.016,16.001,0.016L16.001,0.016z"/>
</g>
<g>
	<path fill="#FFFFFF" d="M3.39,18.79c1.46-0.565,2.688-0.196,4.396,0.316c0.446,0.134,0.93,0.279,1.367,0.395
		c0.391,0.103,0.989-0.121,1.617-0.352c0.785-0.289,1.601-0.589,2.58-0.564c0.739,0.019,1.36,0.356,1.989,0.7
		c0.394,0.215,0.794,0.433,1.016,0.441c0.254,0.008,0.633-0.214,1.01-0.435c0.614-0.363,1.23-0.727,2.087-0.756
		c0.92-0.031,1.631,0.286,2.339,0.6c0.4,0.177,0.8,0.356,1.136,0.382c0.316,0.024,0.738-0.247,1.149-0.507
		c0.57-0.366,1.131-0.723,1.868-0.805c0.877-0.096,1.832,0.316,2.645,0.666l0.021,0.009c0,0.832,0,1.665,0,2.496
		c-0.174-0.051-0.354-0.12-0.541-0.196c-0.13-0.055-0.263-0.112-0.398-0.169c-0.556-0.238-1.211-0.522-1.472-0.492
		c-0.21,0.021-0.54,0.234-0.876,0.449c-0.124,0.077-0.249,0.157-0.374,0.237c-0.623,0.377-1.301,0.702-2.193,0.635
		c-0.727-0.056-1.317-0.317-1.912-0.583l-0.05-0.022c-0.444-0.197-0.89-0.387-1.267-0.377c-0.232,0.01-0.564,0.197-0.901,0.394
		l-0.078,0.045c-0.666,0.395-1.336,0.787-2.273,0.754c-0.767-0.029-1.411-0.379-2.045-0.725l-0.08-0.045
		c-0.354-0.191-0.692-0.369-0.854-0.373c-0.497-0.013-1.069,0.188-1.626,0.393l-0.096,0.033c-0.973,0.361-1.9,0.701-3.001,0.414
		c-0.59-0.154-1.038-0.289-1.448-0.414l-0.012-0.002c-1.489-0.449-2.458-0.736-3.622,0.025c-0.031,0.021-0.064,0.042-0.097,0.063
		v-0.063V18.79H3.39z M21.433,8.694l2.907-0.441c1.807-0.271,1.263-3.526-1.054-3.004l-6.591,1.088
		c-0.714,0.117-1.939,0.207-2.472,0.684c-0.307,0.272-0.434,0.652-0.363,1.126c0.099,0.671,0.659,1.512,0.995,2.122l0.815,1.465
		c0.592,1.065,0.911,1.168-0.187,1.757l-7.485,4.015l0.548,0.162l1.644,0.024c0.186-0.062,0.382-0.133,0.58-0.206
		c0.785-0.29,1.601-0.59,2.58-0.565c0.739,0.019,1.36,0.356,1.989,0.7l0.284,0.151l1.449,0.021c0.097-0.053,0.194-0.109,0.293-0.167
		c0.614-0.363,1.23-0.727,2.086-0.756c0.92-0.031,1.632,0.286,2.337,0.6c0.403,0.178,0.804,0.357,1.138,0.382
		c0.075,0.006,0.158-0.006,0.244-0.029l-3.813-6.781c-0.323-0.577-0.907-1.305-0.823-1.745c0.03-0.147,0.226-0.207,0.467-0.244
		C19.812,8.937,20.621,8.818,21.433,8.694L21.433,8.694z M24.574,10.205c1.594,0,2.887,1.293,2.887,2.888
		c0,1.594-1.293,2.888-2.887,2.888c-1.595,0-2.889-1.293-2.889-2.888C21.687,11.496,22.979,10.205,24.574,10.205L24.574,10.205z"/>
</g>
</svg>
