<?xml version="1.0" encoding="utf-8"?>
<!-- Generator: Adobe Illustrator 15.1.0, SVG Export Plug-In . SVG Version: 6.00 Build 0)  -->
<!DOCTYPE svg PUBLIC "-//W3C//DTD SVG 1.1//EN" "http://www.w3.org/Graphics/SVG/1.1/DTD/svg11.dtd">
<svg version="1.1" id="Layer_1" xmlns="http://www.w3.org/2000/svg" xmlns:xlink="http://www.w3.org/1999/xlink" x="0px" y="0px"
	 width="32px" height="40px" viewBox="0 0 32 40" enable-background="new 0 0 32 40" xml:space="preserve">
<g id="Shape">
	<path fill="#3A3A3A" d="M16,39.65C14.344,38.188,0.707,25.773,0.707,14.004c0-7.576,6.861-13.739,15.294-13.739
		c8.433,0,15.292,6.163,15.292,13.739C31.293,25.67,17.652,38.18,16,39.65z"/>
	<path fill="#FFFFFF" d="M16.001,0.516c8.294,0,15.042,6.051,15.042,13.489c0,11.236-12.822,23.306-15.043,25.312
		C13.776,37.324,0.957,25.34,0.957,14.004C0.957,6.567,7.706,0.516,16.001,0.516 M16.001,0.016c-8.585,0-15.544,6.263-15.544,13.989
		c0,12.729,15.544,25.979,15.544,25.979s15.542-13.363,15.542-25.979C31.543,6.278,24.585,0.016,16.001,0.016L16.001,0.016z"/>
</g>
<g>
	<rect x="6.375" y="5.87" fill="#FFFFFF" width="19.25" height="19.25"/>
	<g>
		<path d="M14.758,15.99c-0.506,0.422-1.228,0.633-2.166,0.633h-1.798v3.105H9.001v-8.637h3.708c0.855,0,1.537,0.223,2.044,0.668
			c0.509,0.445,0.763,1.135,0.763,2.068C15.517,14.848,15.264,15.568,14.758,15.99z M13.381,12.879
			c-0.229-0.191-0.549-0.287-0.96-0.287h-1.626v2.543h1.626c0.412,0,0.732-0.104,0.96-0.311s0.343-0.535,0.343-0.984
			S13.609,13.07,13.381,12.879z"/>
		<path d="M22.282,14.109c0.479,0.605,0.717,1.387,0.717,2.344c0,0.992-0.236,1.814-0.707,2.467s-1.129,0.979-1.973,0.979
			c-0.53,0-0.956-0.105-1.277-0.316c-0.193-0.125-0.401-0.344-0.625-0.656v0.803h-1.646v-8.625h1.67v3.07
			c0.213-0.297,0.446-0.523,0.701-0.68c0.303-0.195,0.688-0.293,1.156-0.293C21.144,13.201,21.805,13.504,22.282,14.109z M20.887,18
			c0.24-0.348,0.36-0.805,0.36-1.371c0-0.453-0.059-0.828-0.178-1.125c-0.225-0.563-0.638-0.844-1.24-0.844
			c-0.61,0-1.029,0.275-1.258,0.826c-0.119,0.293-0.178,0.672-0.178,1.137c0,0.547,0.122,1,0.366,1.359s0.616,0.539,1.116,0.539
			C20.31,18.521,20.646,18.348,20.887,18z"/>
	</g>
</g>
</svg>
