<svg xmlns="http://www.w3.org/2000/svg" viewBox="0 0 160 160"> 

  <defs>
    <linearGradient id="grad1" x1="0%" y1="0%" x2="100%" y2="0%">
      <stop offset="0%" style="stop-color:#1d4370;stop-opacity:1" />
      <stop offset="10%" style="stop-color:#1d4370;stop-opacity:1" />
      <stop offset="50%" style="stop-color:#05b7ed;stop-opacity:1" />
      <stop offset="100%" style="stop-color:#94c12e;stop-opacity:1" />
    </linearGradient>
  </defs>

  <circle cx="80" cy="80" r="60" fill="none" stroke="#EEEEEE" stroke-width="22" /> 
  <circle cx="80" cy="80" r="60" fill="none" stroke="#FFFFFF" stroke-width="20" /> 
  <circle cx="40" cy="80" r="60" fill="none" stroke="url(#grad1)" stroke-width="20" stroke-dasharray="376.991118" stroke-dashoffset="113.0973354" transform="rotate(-90 60 60)"/> 

  <text font-family="Roboto,Arial,sans-serif" font-size="40px" font-weight="300" text-anchor="middle" fill="rgb(88,89,91)" x="52.5%" y="48%">70<tspan font-size="20px" fill="%2C%5BtextColor%5D%2C" style="baseline-shift: super">%</tspan></text>

  <text font-family="Roboto,Arial,sans-serif" font-size="50px" font-weight="700" text-anchor="middle" fill="#05b7ed" x="42%" y="75%">2</text>


  <svg xmlns="http://www.w3.org/2000/svg" x="80" y="82" width="40" height="40">
  
    <svg xmlns="http://www.w3.org/2000/svg" viewBox="0 0 160 160">
     <g>
      <title>Pick</title>
      <path fill="rgb(88,89,91)" id="svg_2" d="m138.00628,81.84962l-0.1628,-0.17694c-7.38503,-8.08785 -15.8547,-16.09117 -25.89248,-24.46711c-1.51746,-1.26652 -8.38976,-6.70391 -8.71075,-6.97721s-0.65414,-0.51141 -0.58376,-0.8768c0.08354,-0.43379 0.20522,-0.90212 0.34861,-1.39544c0.12761,-0.43939 0.25916,-0.89423 0.3598,-1.37604c0.18319,-0.87515 0.29928,-1.65493 0.35519,-2.38472l0.00329,-0.03947c0.06249,-0.81365 0.17957,-2.32782 -0.76531,-3.3365c-0.33151,-0.35322 -0.93961,-0.77484 -1.95849,-0.77484c-0.75051,0 -1.48687,0.2266 -1.92626,0.36276l-0.04835,0.01513c-1.19515,0.36637 -2.2604,0.92646 -3.05531,1.37374c-0.4601,0.25883 -0.91955,0.53081 -1.36354,0.80905c-0.13287,0.08321 -0.26639,0.17431 -0.40058,0.26705c-0.34533,0.23844 -0.50812,0.4578 -1.01263,0.02763c-0.69789,-0.61402 -8.51473,-7.28274 -29.54175,-17.08636c-3.37268,-1.57238 -6.87131,-3.0165 -10.39758,-4.2919c-3.45851,-1.25041 -7.27123,-2.43175 -11.65423,-3.61111l-0.13385,-0.03618c-0.50944,-0.1378 -1.06163,-0.26574 -1.64408,-0.26574c-1.16424,0 -2.13904,0.53608 -2.74682,1.50956c-0.50089,0.8028 -0.62685,1.7799 -0.345,2.67972c0.29468,0.94257 0.99355,1.71051 1.91573,2.10747l2.35512,1.01394c9.33628,4.0163 18.5956,9.57735 28.30746,17.00085c3.32893,2.54488 6.33918,4.99702 9.20242,7.49685c1.35302,1.18134 2.7034,2.38011 4.01334,3.56343c0.11642,0.10458 1.10899,1.04946 1.10899,1.04946l-60.26583,71.51224c-1.89468,2.24724 -2.80864,4.83587 -2.64388,7.48533c0.15753,2.53107 1.33164,4.98222 3.22172,6.7243c1.84733,1.70262 4.25638,2.6396 6.78416,2.6396c0.31638,0 0.63671,-0.01513 0.95112,-0.04539c2.856,-0.2733 5.48837,-1.79503 7.22223,-4.17515c0.52391,-0.71861 51.53666,-70.72819 54.39694,-74.66095c7.93196,8.19013 15.41861,17.02683 22.25045,26.26445c1.34381,1.81674 3.72195,5.2029 3.82949,5.36635c0.45945,0.70413 0.98072,1.50134 1.71808,2.08872c0.5568,0.44267 1.20469,0.67717 1.87364,0.67717c1.04453,0 1.89304,-0.56337 2.4403,-0.9873l12.36001,-9.5734c1.47437,-1.28132 1.51779,-2.57843 1.51779,-2.57843c0.0934,-1.4257 -0.76662,-2.35841 -1.28264,-2.91783z" opacity="1" stroke="null" />
     </g>
    </svg>


  </svg>
</svg>