<svg xmlns="http://www.w3.org/2000/svg" version="1.1" viewBox="0 0 300 300">
    <defs>
        <!-- Danger Gradient: yellow-orange-lightred -->
        <linearGradient id="grad" x1="0%" y1="0%" x2="100%" y2="100%">
        <stop offset="0%" style="stop-color:#fff41c;stop-opacity:1" />
        <stop offset="20%" style="stop-color:#ffdb1c;stop-opacity:1" />
        <stop offset="50%" style="stop-color:#ffb71c;stop-opacity:1" />
        <stop offset="80%" style="stop-color:#ff6b1c;stop-opacity:1" />
        </linearGradient>
    </defs>
    
    <rect id="background" fill="url(#grad)" width="100%" height="100%"/>
    <svg width="120" height="120" viewBox="0 0 60 60" x="90" y="90"> 
        <path id="icon-warning" fill="#eeeeee" opacity="0.8" stroke="null" d="m47.7404,24.67778c-0.6295,-1.19341 -1.86547,-1.94082 -3.2148,-1.94082l-6.83395,0l8.2667,-16.5334c0.56209,-1.126 0.50183,-2.46297 -0.15956,-3.53313c-0.6615,-1.07096 -1.82995,-1.72259 -3.08895,-1.72259l-18.1576,0c-1.56394,0 -2.95061,1.00014 -3.44529,2.48339l-9.0788,27.2364c-0.36883,1.10739 -0.1826,2.32463 0.50001,3.27155c0.68273,0.94692 1.77854,1.5081 2.94528,1.5081l8.47767,0l-2.98783,19.42103c-0.25716,1.6739 0.67558,3.30434 2.25018,3.92851c0.43624,0.17284 0.89018,0.25534 1.33697,0.25534c1.16856,0 2.29989,-0.56481 2.99498,-1.5737l19.97336,-29.05216c0.76421,-1.11181 0.84932,-2.55523 0.22164,-3.74852z" />
    </svg>
</svg>