<svg xmlns="http://www.w3.org/2000/svg" version="1.1" viewBox="0 0 600 300">
    <svg width="600" height="300">
        <rect id="background" fill="#eeeeee" width="100%" height="100%"/>
        <svg width="70%" height="70%" viewBox="0 0 100 100" x="80" y="-30"> 
            <g fill="#1d4370">
                <path d="M49.91,20A25.4,25.4,0,1,0,75.09,45.5C75.09,31.71,63.85,20,49.91,20ZM66.45,43.24,55.93,53.38c-.76.76-1.77.13-1.77-1.14V46.16c-7.6,0-12.67,5.19-12.67,12.8h-7.6a20.12,20.12,0,0,1,20.27-20.4V32.35c0-1.27,1.14-1.9,1.77-1.14L66.45,41.47A1.52,1.52,0,0,1,66.45,43.24Z" />
                <path d="M26,64.21H24.73A4.75,4.75,0,0,0,20,68.95v6.31A4.74,4.74,0,0,0,24.73,80H75.27A4.75,4.75,0,0,0,80,75.26V68.95a4.74,4.74,0,0,0-4.73-4.74H73.73a30.15,30.15,0,0,1-47.72,0Z" />
            </g>
        </svg>
        <text font-family="Roboto,Arial,sans-serif" font-size="80px" font-weight="700" text-anchor="middle" fill="#1d4370" x="50%" y="67%">Assegnato.</text>
        <text font-family="Roboto,Arial,sans-serif" font-size="40px" font-weight="300" font-stretch="condensed" text-anchor="middle" fill="#000000" x="50%" y="87%">Bitte starten. Danke.</text>
    </svg>
</svg>