<svg xmlns="http://www.w3.org/2000/svg" version="1.1" viewBox="0 0 600 300">
    <svg width="600" height="300">
        <rect id="background" fill="#eeeeee" width="100%" height="100%"/>
        <svg width="40%" height="40%" viewBox="0 0 60 60" x="180" y="10"> 
            <path id="icon-flash" fill="#ff9900" stroke="null" d="m47.7404,24.67778c-0.6295,-1.19341 -1.86547,-1.94082 -3.2148,-1.94082l-6.83395,0l8.2667,-16.5334c0.56209,-1.126 0.50183,-2.46297 -0.15956,-3.53313c-0.6615,-1.07096 -1.82995,-1.72259 -3.08895,-1.72259l-18.1576,0c-1.56394,0 -2.95061,1.00014 -3.44529,2.48339l-9.0788,27.2364c-0.36883,1.10739 -0.1826,2.32463 0.50001,3.27155c0.68273,0.94692 1.77854,1.5081 2.94528,1.5081l8.47767,0l-2.98783,19.42103c-0.25716,1.6739 0.67558,3.30434 2.25018,3.92851c0.43624,0.17284 0.89018,0.25534 1.33697,0.25534c1.16856,0 2.29989,-0.56481 2.99498,-1.5737l19.97336,-29.05216c0.76421,-1.11181 0.84932,-2.55523 0.22164,-3.74852z" />
        </svg>
        <text font-family="Roboto,Arial,sans-serif" font-size="80px" font-weight="700" text-anchor="middle" fill="#ff9900" x="50%" y="67%">Bald fällig!</text>
        <text font-family="Roboto,Arial,sans-serif" font-size="40px" font-weight="300" font-stretch="condensed" text-anchor="middle" fill="#000000" x="50%" y="87%">Merci de t'en occuper.</text>
    </svg>
</svg>