<svg xmlns="http://www.w3.org/2000/svg" version="1.1" viewBox="0 0 600 300">
    <svg width="600" height="300">
        <rect id="background" fill="#eeeeee" width="100%" height="100%"/>
        <svg width="40%" height="40%" viewBox="0 0 60 60" x="180" y="10"> 
            <svg viewBox="0 0 512 512">
        <g fill="#05b7ed">
        <path d="M208,512,155.62,372.38,16,320l139.62-52.38L208,128l52.38,139.62L400,320,260.38,372.38Z"/>
        <path d="M88,176,64.43,111.57,0,88,64.43,64.43,88,0l23.57,64.43L176,88l-64.43,23.57Z"/>
        <path d="M400,256l-31.11-80.89L288,144l80.89-31.11L400,32l31.11,80.89L512,144l-80.89,31.11Z"/>
        </g>
        </svg>
        </svg>
        <text font-family="Roboto,Arial,sans-serif" font-size="80px" font-weight="700" text-anchor="middle" fill="#05b7ed" x="50%" y="67%">In Bearbeitung...</text>
        <text font-family="Roboto,Arial,sans-serif" font-size="40px" font-weight="300" font-stretch="condensed" text-anchor="middle" fill="#000000" x="50%" y="87%">Danke für dein Update!</text>
    </svg>
</svg>