<svg xmlns="http://www.w3.org/2000/svg" version="1.1" viewBox="0 0 300 300">
    <defs>
        <!-- Danger Gradient: yellow-red-purple -->
        <linearGradient id="grad1" x1="0%" y1="0%" x2="100%" y2="100%">
        <stop offset="0%" style="stop-color:#c30042;stop-opacity:1" />
        <stop offset="20%" style="stop-color:#7a0067;stop-opacity:1" />
        <stop offset="50%" style="stop-color:#5c064f;stop-opacity:1" />
        <stop offset="80%" style="stop-color:#120310;stop-opacity:1" />
        </linearGradient>

        <!-- Danger Gradient: yellow-red-purple -->
        <linearGradient id="grad" x1="0%" y1="0%" x2="100%" y2="100%">
        <stop offset="0%" style="stop-color:#ffdb1c;stop-opacity:1" />
        <stop offset="20%" style="stop-color:#c48600;stop-opacity:1" />
        <stop offset="50%" style="stop-color:#c30042;stop-opacity:1" />
        <stop offset="80%" style="stop-color:#7a0067;stop-opacity:1" />
        </linearGradient>
    </defs>
    
    <rect id="background" fill="url(#grad)" width="100%" height="100%"/>
    <svg width="120" height="120" viewBox="0 0 60 60" x="90" y="80"> 
        <path id="icon-warning" fill="#eeeeee" opacity="0.8" stroke="null" d="m58.73572,43.68587l-20.97319,-36.32724c-3.4257,-6.00114 -12.08854,-6.00114 -15.50192,0l-20.98551,36.32724c-3.4257,6.00114 0.83794,13.45636 7.75096,13.45636l41.88476,0c6.91302,0 11.2506,-7.52915 7.8249,-13.45636l0,0zm-28.73647,5.39733c-1.82376,0 -3.33944,-1.51569 -3.33944,-3.33944s1.51569,-3.33944 3.33944,-3.33944c1.82376,0 3.33944,1.51569 3.26551,3.4257c0.08626,1.7375 -1.51569,3.25319 -3.26551,3.25319l0,0zm3.0437,-21.58932c-0.14787,2.58776 -0.30807,5.1632 -0.45594,7.75096c-0.07393,0.83794 -0.07393,1.60195 -0.07393,2.42757c-0.07393,1.36782 -1.14601,2.42757 -2.51383,2.42757s-2.42757,-0.98581 -2.51383,-2.35363c-0.22181,-4.02951 -0.45594,-7.98509 -0.67775,-12.01461c-0.07393,-1.05975 -0.14787,-2.13182 -0.23413,-3.19157c0,-1.74982 0.98581,-3.19157 2.58776,-3.64751c1.60195,-0.382 3.19157,0.382 3.88164,1.89769c0.23413,0.52988 0.30807,1.05975 0.30807,1.67588c-0.07393,1.68821 -0.23413,3.36409 -0.30807,5.02765l0,0.00001z" />
    </svg>
</svg>