<svg xmlns="http://www.w3.org/2000/svg" version="1.1" viewBox="0 0 300 300">
    <defs>
        <!-- Danger Gradient: yellow-red-purple -->
        <linearGradient id="grad" x1="0%" y1="0%" x2="100%" y2="100%">
        <stop offset="0%" style="stop-color:#5c064f;stop-opacity:1" />
        <stop offset="20%" style="stop-color:#7a0067;stop-opacity:1" />
        <stop offset="50%" style="stop-color:#205f91;stop-opacity:1" />
        <stop offset="80%" style="stop-color:#1d4370;stop-opacity:1" />
        </linearGradient>
    </defs>
    
    <rect id="background" fill="url(#grad)" width="100%" height="100%"/>
    <svg width="150px" height="150px" viewBox="0 0 512 512" x="70" y="70">
        <path fill="#eeeeee" opacity="0.8"  d="M172.5 332H37.4c-10 0-19.1-6-22.9-15.3c-3.8-9.3-1.7-19.9 5.4-27l95.2-95.2H41.7c-13.7 0-24.8-11.1-24.8-24.8s11.1-24.8 24.8-24.8h133.2c10 0 19.1 6 22.9 15.3c3.9 9.3 1.7 19.9-5.4 27l-95.2 95.2h75.3c13.7 0 24.8 11.1 24.8 24.8s-11 24.8-24.8 24.8z"></path>
        <path fill="#eeeeee" opacity="0.8"  d="M361.4 126.6h-87.9c-7.5 0-14.3-4.5-17.2-11.5c-2.9-7-1.3-14.9 4-20.3L318 37.1h-41.7c-10.3 0-18.6-8.3-18.6-18.6S266.1 0 276.4 0H363c7.5 0 14.3 4.5 17.2 11.5c2.9 7 1.3 15-4 20.3l-57.7 57.7h43c10.3 0 18.6 8.3 18.6 18.6s-8.4 18.5-18.7 18.5z"></path>
        <path fill="#eeeeee" opacity="0.8"  d="M458.9 507.8H276.1c-15 0-28.6-9.1-34.4-23c-5.8-13.9-2.6-29.9 8.1-40.6l122.4-122.4h-90.3c-20.5 0-37.2-16.7-37.2-37.2s16.7-37.2 37.2-37.2h180.2c15 0 28.6 9.1 34.4 23c5.8 13.9 2.6 29.9-8.1 40.6L366 433.4h92.9c20.5 0 37.2 16.7 37.2 37.2s-16.7 37.2-37.2 37.2z"></path>
    </svg>
</svg>



